<svg width="24" height="24" viewBox="0 0 24 24" fill="none" xmlns="http://www.w3.org/2000/svg">
<path d="M12 8.58275e-07C5.37259 2.78888e-07 3.53581e-06 5.37258 2.95642e-06 12C2.37703e-06 18.6274 5.37259 24 12 24C18.6274 24 24 18.6274 24 12C24 5.37259 18.6274 1.43766e-06 12 8.58275e-07Z" fill="#686256"/>
<path d="M19.9807 12.0295L19.8373 11.9388C19.3514 11.4529 18.6723 11.2421 17.7678 11.2948C17.0126 11.3416 16.4155 11.6402 15.9589 11.9183C15.9589 11.9124 15.9589 11.9036 15.9589 11.8978C15.9589 11.6607 15.9852 11.406 16.0116 11.1572C16.0379 10.9055 16.0643 10.6479 16.0643 10.405C16.0643 10.1562 16.035 9.92199 15.9501 9.72002C15.9296 9.66734 15.8799 9.63807 15.8213 9.63807C15.5784 9.64392 15.1012 9.81076 14.9871 9.91028L14.9256 10.0479C14.9227 10.3172 14.8612 11.0723 14.8027 11.1631C14.8056 11.1602 14.7705 11.2538 14.7705 11.2538C14.668 12.331 14.6651 13.2764 14.7617 14.0872C14.7734 14.1692 14.9286 14.2892 15.0486 14.336C15.1803 14.3858 15.5959 14.2746 15.8359 14.1838C15.833 14.1838 15.9267 14.1692 15.9267 14.1692C16.0028 14.1604 16.0467 14.099 16.0438 14.0111C16.0438 14.0082 16.0496 13.777 16.0496 13.777C16.2223 13.0774 16.919 12.2402 17.7444 12.1144C18.2098 12.0412 18.5786 12.1612 18.8713 12.4773C18.9094 12.533 18.9943 13.0393 18.6869 13.6189C18.4586 14.0492 17.9991 14.4092 17.3961 14.6346C16.8253 14.8512 16.1989 14.939 15.4232 14.9127C15.391 14.8922 14.6973 14.4209 14.6973 14.4209C14.0826 13.9906 13.3187 13.4521 12.6279 13.1886C12.5049 13.1418 12.2883 12.9603 12.1566 12.852L12.0863 12.7935C11.6883 12.4744 10.9272 11.968 10.3184 11.5612C10.3184 11.5612 10.0432 11.3768 9.99055 11.3416C9.99055 11.3182 9.99055 11.2714 9.99055 11.2714C10.0081 11.2509 10.3916 11.0226 10.3916 11.0226C10.9272 10.7094 11.176 10.5542 11.2287 10.4752C11.217 10.4869 11.299 10.4342 11.299 10.4342C11.3048 10.4313 12.6308 9.68197 12.6308 9.68197C13.907 8.97947 15.3559 8.1833 16.114 7.39592L16.1521 7.2759L16.1696 7.1676C16.2194 6.99783 16.2223 6.86904 16.1813 6.71976C16.1696 6.67585 16.1316 6.62609 16.0789 6.61731C15.4847 6.55877 14.7207 6.91295 14.0241 7.56861C13.866 7.71497 13.7343 7.78815 13.5967 7.86425L13.4914 7.92279C12.7245 8.35893 10.9916 9.43317 10.0871 10.0127C10.1457 9.03801 10.3272 7.6535 10.5496 6.4973L10.5262 6.35973C10.5233 6.35387 10.4325 6.1841 10.4325 6.1841L10.3623 6.05824H10.3301C10.1486 5.9675 10.0023 6.00262 9.89396 6.03189L9.71248 6.09921L9.46953 6.18703C9.4227 6.19581 9.38757 6.22508 9.37001 6.27191C8.9368 7.31688 8.57677 9.03801 8.49188 10.4137C7.62839 9.86345 6.8293 9.46829 6.43707 9.27803L6.42536 9.27218L6.37853 9.2634C6.23803 9.24584 6.06533 9.14046 5.90141 9.04094C5.88385 9.02923 5.57358 8.82726 5.57358 8.82726L5.06719 8.50235C5.07012 8.50528 4.93547 8.47308 4.93547 8.47308C4.71887 8.50821 4.30615 8.78628 4.18321 8.97654C4.16857 9.00289 4.15979 9.02923 4.15979 9.0585C4.15979 9.09948 4.1715 9.13753 4.18321 9.17851L4.20663 9.28096L4.23004 9.34243C4.47006 9.5883 5.0789 10.001 5.6731 10.3201L6.36389 10.686L7.42057 11.2626C7.42057 11.2685 7.60205 11.406 7.60205 11.406L7.72499 11.4763C7.72499 11.4763 7.73962 11.4851 7.7484 11.4909C7.4674 11.6782 5.82531 12.7759 5.82531 12.7759L4.81546 13.4462C4.71887 13.5106 4.32078 13.6892 4.23297 13.7243C4.01344 13.815 3.84659 13.9497 3.77927 14.0989L3.75 14.1604L3.77634 14.1985L3.85245 14.257C3.84952 14.257 3.9549 14.3243 3.9549 14.3243L4.06613 14.4004C4.06905 14.4004 4.1715 14.418 4.1715 14.418C4.35005 14.4239 4.61349 14.3243 5.10524 14.1077C5.55894 13.9087 6.78539 13.1652 7.30934 12.8491L7.53473 12.7144C7.62839 12.7232 7.72791 12.6442 7.82158 12.5739C7.92696 12.4891 8.15527 12.3486 8.29577 12.2871C8.30162 12.2871 8.38065 12.2402 8.45383 12.1993C8.45383 12.2227 8.45383 12.2578 8.45383 12.2578C8.47725 13.8648 8.56799 15.0327 8.74361 15.9313L8.74947 15.9518L8.76703 15.9869C8.85192 16.1128 8.95144 16.4933 9.03925 16.8299L9.23829 17.5002C9.24415 17.509 9.29391 17.5617 9.29391 17.5617C9.40806 17.6407 9.75639 17.7724 9.98763 17.7461L10.0462 17.7402L10.0842 17.6583C10.1047 17.5588 10.1106 17.4592 10.1106 17.3509C10.1106 17.228 10.1018 17.0934 10.0901 16.9294L10.0754 16.6865C10.0023 15.5654 9.92908 13.9467 9.92908 12.8696C9.92908 12.8403 9.92908 12.811 9.92908 12.7847C10.1193 12.9047 10.9536 13.4286 10.9536 13.4286C12.3732 14.3478 14.5129 15.7381 15.8096 16.1069C15.8769 16.1274 15.9472 16.1128 15.9969 16.063C15.9999 16.0601 16.196 15.9342 16.196 15.9342L16.234 15.9196C16.3072 15.8845 16.357 15.7586 16.3658 15.624C17.4576 15.5683 18.9796 15.1498 19.7934 14.1253C20.1095 13.7272 20.25 13.2413 20.25 12.8257C20.2471 12.4861 20.1534 12.1934 19.9807 12.0295Z" fill="#FFBC00"/>
</svg>
