<svg width="219" height="22" viewBox="0 0 219 22" fill="none" xmlns="http://www.w3.org/2000/svg">
<path d="M31.0869 8.088C30.4629 9.032 28.1589 10.408 26.3029 11.016L25.7589 10.312C27.5989 9.704 30.5269 8.312 30.5269 6.76V6.152H26.3349V5.272H30.5269V3.416H31.6469V5.272H35.8389V6.152H31.6469V6.76C31.6469 8.312 34.5749 9.704 36.4149 10.312L35.8709 11.016C34.0149 10.408 31.7109 9.032 31.0869 8.088ZM30.5429 18.2V13.24H24.5269V12.36H37.6469V13.24H31.6469V18.2H30.5429ZM51.757 10.056H49.437V18.2H48.333V4.088H49.437V9.176H51.757V10.056ZM45.389 6.648C45.389 10.376 42.541 12.952 39.325 14.52L38.893 13.8C41.757 12.328 44.285 10.088 44.285 6.92V5.8H39.165V4.92H45.021C45.277 4.92 45.389 5.032 45.389 5.288V6.648ZM60.2671 18.84C57.8031 18.84 56.2191 17.56 56.2191 15.576C56.2191 13.592 57.8031 12.312 60.2671 12.312C62.7311 12.312 64.3151 13.592 64.3151 15.576C64.3151 17.56 62.7311 18.84 60.2671 18.84ZM60.2671 13.16C58.4111 13.16 57.2911 14.104 57.2911 15.576C57.2911 17.048 58.4111 17.992 60.2671 17.992C62.1231 17.992 63.2431 17.048 63.2431 15.576C63.2431 14.104 62.1231 13.16 60.2671 13.16ZM60.6191 11.528C59.6271 11.064 57.7551 9.608 57.1311 8.616C56.5071 9.768 54.7631 11.288 53.5311 11.912L52.9231 11.272C54.7951 10.216 56.5551 8.84 56.5551 6.696V5.384H53.5631V4.504H60.5871V5.384H57.6591V6.68C57.6591 8.728 59.6591 10.024 61.1311 10.824L60.6191 11.528ZM60.2511 8.04V7.176H63.3071V4.088H64.4111V12.12H63.3071V8.04H60.2511ZM77.8173 4.728V11.624C77.8173 11.736 77.7533 11.8 77.6413 11.8H73.8813V15.08H79.8813V15.96H66.7613V15.08H72.7773V11.8H69.9773C69.1933 11.8 68.8253 11.432 68.8253 10.648V4.728H69.8973V7.496H76.7453V4.728H77.8173ZM76.7453 10.92V8.344H69.8973V10.648C69.8973 10.808 70.0093 10.92 70.1693 10.92H76.7453ZM89.4998 10.904C87.2278 10.904 85.7718 9.464 85.7718 7.544C85.7718 5.624 87.2278 4.184 89.4998 4.184C91.7718 4.184 93.2278 5.624 93.2278 7.544C93.2278 9.464 91.7718 10.904 89.4998 10.904ZM96.9718 12.408V18.184C96.9718 18.296 96.9078 18.36 96.7958 18.36H89.2438C88.4598 18.36 88.0918 17.992 88.0918 17.208V12.408H89.1638V14.44H95.8998V12.408H96.9718ZM89.4998 5.032C87.8678 5.032 86.8438 6.072 86.8438 7.544C86.8438 9.016 87.8678 10.056 89.4998 10.056C91.1318 10.056 92.1558 9.016 92.1558 7.544C92.1558 6.072 91.1318 5.032 89.4998 5.032ZM95.8998 17.48V15.288H89.1638V17.208C89.1638 17.368 89.2758 17.48 89.4358 17.48H95.8998ZM96.9718 11.16H95.8678V4.088H96.9718V11.16ZM100.298 7.864H105.146V5.288H100.298V4.424H106.074C106.186 4.424 106.25 4.488 106.25 4.6V8.696H101.402V11.096C101.402 11.256 101.514 11.368 101.674 11.368C102.586 11.368 103.418 11.352 104.33 11.336C105.77 11.304 107.05 11.224 108.298 11L108.362 11.704C107.29 11.96 105.962 12.168 104.282 12.2C103.274 12.216 102.458 12.232 101.45 12.232C100.666 12.232 100.298 11.864 100.298 11.08V7.864ZM107.53 9.688V8.824H109.946V6.792H107.53V5.928H109.946V4.088H111.05V12.648H109.946V9.688H107.53ZM111.05 18.52H109.946V14.632H101.882V13.752H110.874C110.986 13.752 111.05 13.816 111.05 13.928V18.52Z" fill="#26282C"/>
<circle cx="9.5" cy="11.5" r="7.5" stroke="#484B51" stroke-width="1.4"/>
<path d="M6.6875 11.5H12.3125" stroke="#484B51" stroke-width="1.4" stroke-linecap="round"/>
<path d="M9.5 14.3125L9.5 8.6875" stroke="#484B51" stroke-width="1.4" stroke-linecap="round"/>
<path d="M164.296 4.08C164.296 3.968 164.36 3.904 164.472 3.904H170.936V4.784H165.4V11.536C165.4 11.696 165.512 11.808 165.672 11.808C166.584 11.808 168.056 11.792 168.968 11.776C170.504 11.744 172.136 11.568 173.368 11.2V3.088H174.472V7.888H176.792V8.752H174.472V17.2H173.368V11.904C172.2 12.304 170.68 12.624 168.92 12.656C167.912 12.672 166.456 12.688 165.448 12.688C164.664 12.688 164.296 12.32 164.296 11.536V4.08ZM184.966 7.792V6.928H187.862V3.088H188.966V13.312H187.862V7.792H184.966ZM189.366 16.304V17.184H181.302C180.518 17.184 180.15 16.816 180.15 16.032V12.608H181.254V16.032C181.254 16.192 181.366 16.304 181.526 16.304H189.366ZM184.342 5.152C184.342 8.384 181.014 10.544 178.134 11.536L177.702 10.816C180.822 9.712 183.238 7.76 183.238 5.424V4.544H178.278V3.664H183.974C184.23 3.664 184.342 3.776 184.342 4.032V5.152ZM203.044 17.2H201.94V3.088H203.044V17.2ZM195.636 12.48C193.204 12.48 191.812 10.688 191.812 8.032C191.812 5.376 193.204 3.584 195.636 3.584C198.068 3.584 199.46 5.376 199.46 8.032C199.46 10.688 198.068 12.48 195.636 12.48ZM195.636 4.432C193.876 4.432 192.884 5.952 192.884 8.032C192.884 10.112 193.876 11.632 195.636 11.632C197.396 11.632 198.388 10.112 198.388 8.032C198.388 5.952 197.396 4.432 195.636 4.432ZM211.746 13.456C210.818 12.72 209.426 10.976 208.834 9.792C208.29 11.104 206.85 12.768 205.682 13.68L205.106 13.04C206.898 11.536 208.29 9.792 208.29 7.632V6.048H205.57V5.168H208.29V2.896H209.394V5.168H212.098V6.048H209.394V7.632C209.394 9.792 210.946 11.616 212.322 12.848L211.746 13.456ZM214.546 16.768H213.474V9.104H211.346V8.24H213.474V3.168H214.546V16.768ZM216.194 3.088H217.266V17.2H216.194V3.088Z" fill="#26282C"/>
<path d="M157.197 11.5399C157.484 10.1706 157.362 8.74616 156.847 7.44679C156.333 6.14742 155.449 5.03146 154.307 4.24002C153.165 3.44859 151.817 3.01724 150.432 3.00051C149.048 2.98377 147.69 3.38242 146.53 4.14602C145.369 4.90963 144.459 6.0039 143.914 7.29047C143.369 8.57703 143.213 9.9981 143.467 11.374C143.721 12.7498 144.373 14.0187 145.34 15.0201C146.307 16.0216 147.546 16.7106 148.901 17" stroke="#484B51" stroke-width="1.4" stroke-linecap="round"/>
<path d="M146.703 16.1167C145.517 16.1775 144.338 15.882 143.315 15.2674C142.292 14.6529 141.471 13.7469 140.956 12.6641C140.441 11.5813 140.254 10.3703 140.42 9.18414C140.586 7.99803 141.097 6.89011 141.888 6.0005C142.679 5.11088 143.715 4.47953 144.865 4.18626C145.352 4.06201 145.851 4.00081 146.348 4.00212" stroke="#484B51" stroke-width="1.4" stroke-linecap="round"/>
<path d="M156.349 13.5L158.349 16L156.349 18.5" stroke="#484B51" stroke-width="1.4" stroke-linecap="round" stroke-linejoin="round"/>
<path d="M152.349 16H158.349" stroke="#484B51" stroke-width="1.4" stroke-linecap="round"/>
<path d="M148 8.5L149 13L150.5 8.5L152 13L153 8.5" stroke="#484B51" stroke-linecap="round" stroke-linejoin="round"/>
<path d="M147 10.5H148" stroke="#484B51" stroke-linecap="round" stroke-linejoin="round"/>
<path d="M153 10.5H154" stroke="#484B51" stroke-linecap="round" stroke-linejoin="round"/>
<rect x="125" y="4" width="1" height="16" fill="#C4C4C4"/>
</svg>
