<svg width="20" height="20" viewBox="0 0 20 20" fill="none" xmlns="http://www.w3.org/2000/svg">
<path d="M9.79005 1.70619C9.88855 1.55382 10.1114 1.55382 10.2099 1.70618L12.5814 5.37436L13.2112 4.96717L12.5814 5.37436C12.8175 5.73962 13.1812 6.00385 13.6016 6.11556L17.823 7.2374C17.9984 7.284 18.0672 7.49598 17.9528 7.63674L15.1969 11.0256C14.9225 11.3631 14.7836 11.7906 14.8073 12.2249L15.0448 16.5864C15.0547 16.7676 14.8744 16.8986 14.7051 16.8332L10.6305 15.2595C10.2248 15.1028 9.77523 15.1028 9.3695 15.2595L5.29487 16.8332C5.12562 16.8986 4.9453 16.7676 4.95517 16.5864L5.19273 12.2249C5.21639 11.7906 5.07747 11.3631 4.80306 11.0256L2.04724 7.63674C1.93277 7.49598 2.00165 7.28399 2.17699 7.2374L6.39845 6.11556L6.20582 5.39072L6.39845 6.11556C6.81879 6.00385 7.18248 5.73962 7.41862 5.37436L9.79005 1.70619Z" stroke="#8C949E" stroke-width="1.5"/>
</svg>
