<svg width="20" height="20" viewBox="0 0 20 20" fill="none" xmlns="http://www.w3.org/2000/svg">
<path d="M9.16021 1.299C9.55421 0.689552 10.4458 0.689551 10.8398 1.299L13.2112 4.96717C13.3462 5.17589 13.554 5.32688 13.7942 5.39072L18.0156 6.51256C18.717 6.69894 18.9925 7.54688 18.5347 8.10993L15.7788 11.4988C15.622 11.6917 15.5426 11.936 15.5562 12.1841L15.7937 16.5456C15.8332 17.2703 15.1119 17.7943 14.4349 17.5329L10.3603 15.9592C10.1284 15.8696 9.87156 15.8696 9.63971 15.9592L5.56508 17.5329C4.88811 17.7943 4.16681 17.2703 4.20628 16.5456L4.44384 12.1841C4.45736 11.936 4.37798 11.6917 4.22118 11.4988L1.46535 8.10993C1.00748 7.54688 1.28299 6.69894 1.98436 6.51256L6.20582 5.39072C6.44602 5.32688 6.65384 5.17589 6.78878 4.96717L9.16021 1.299Z" fill="#FFCC00"/>
</svg>
