<svg width="322" height="38" viewBox="0 0 322 38" fill="none" xmlns="http://www.w3.org/2000/svg">
<path d="M22.134 3.57C22.134 3.472 22.19 3.416 22.288 3.416H27.944V4.186H23.1V10.094C23.1 10.234 23.198 10.332 23.338 10.332C24.136 10.332 25.424 10.318 26.222 10.304C27.566 10.276 28.994 10.122 30.072 9.8V2.702H31.038V6.902H33.068V7.658H31.038V15.05H30.072V10.416C29.05 10.766 27.72 11.046 26.18 11.074C25.298 11.088 24.024 11.102 23.142 11.102C22.456 11.102 22.134 10.78 22.134 10.094V3.57ZM44.5184 10.416H33.0384V9.66H44.5184V10.416ZM43.0764 14.266V15.036H35.7684C35.0824 15.036 34.7604 14.714 34.7604 14.028V11.466H35.7264V14.028C35.7264 14.168 35.8244 14.266 35.9644 14.266H43.0764ZM42.7124 6.006H35.8104V7.42C35.8104 7.56 35.9084 7.658 36.0484 7.658H42.9924V8.4H35.8524C35.1664 8.4 34.8444 8.078 34.8444 7.392V5.292H41.7464V3.752H34.8444V3.01H42.5584C42.6564 3.01 42.7124 3.066 42.7124 3.164V6.006ZM59.3605 9.996H47.8805V9.24H59.3605V9.996ZM57.9185 14.266V15.036H50.6105C49.9245 15.036 49.6025 14.714 49.6025 14.028V11.326H50.5685V14.028C50.5685 14.168 50.6665 14.266 50.8065 14.266H57.9185ZM53.6205 8.176C51.4365 8.176 50.0785 7.112 50.0785 5.418C50.0785 3.724 51.4365 2.66 53.6205 2.66C55.8045 2.66 57.1625 3.724 57.1625 5.418C57.1625 7.112 55.8045 8.176 53.6205 8.176ZM53.6205 3.402C52.0385 3.402 51.0165 4.186 51.0165 5.418C51.0165 6.65 52.0385 7.434 53.6205 7.434C55.2025 7.434 56.2245 6.65 56.2245 5.418C56.2245 4.186 55.2025 3.402 53.6205 3.402ZM70.2369 10.108H69.2989V6.58H67.5489V9.548H66.6109V2.772H67.5489V5.824H69.2989V2.702H70.2369V10.108ZM66.4709 15.61C64.3149 15.61 62.9289 14.686 62.9289 12.992C62.9289 11.298 64.3149 10.374 66.4709 10.374C68.6269 10.374 70.0129 11.298 70.0129 12.992C70.0129 14.686 68.6269 15.61 66.4709 15.61ZM66.4709 11.116C64.8469 11.116 63.8669 11.746 63.8669 12.992C63.8669 14.238 64.8469 14.868 66.4709 14.868C68.0949 14.868 69.0749 14.238 69.0749 12.992C69.0749 11.746 68.0949 11.116 66.4709 11.116ZM62.2149 3.794V2.254H63.1529V3.794H65.8129V4.55H59.4989V3.794H62.2149ZM62.6769 9.884C61.0389 9.884 59.9049 9.002 59.9049 7.546C59.9049 6.09 61.0389 5.208 62.6769 5.208C64.3149 5.208 65.4489 6.09 65.4489 7.546C65.4489 9.002 64.3149 9.884 62.6769 9.884ZM62.6769 5.95C61.5709 5.95 60.8149 6.552 60.8149 7.546C60.8149 8.54 61.5709 9.142 62.6769 9.142C63.7829 9.142 64.5389 8.54 64.5389 7.546C64.5389 6.552 63.7829 5.95 62.6769 5.95ZM79.6331 5.04C79.6331 5.152 79.6331 5.264 79.6191 5.362H81.4111V2.772H82.3491V14.672H81.4111V9.758H78.9191V9.002H81.4111V6.118H79.5351C79.0871 8.568 77.1831 10.486 75.1531 11.746L74.6351 11.172C77.0151 9.604 78.6671 7.7 78.6671 5.278V4.27H75.0411V3.5H79.3111C79.5351 3.5 79.6331 3.598 79.6331 3.822V5.04ZM84.0011 2.702H84.9391V15.05H84.0011V2.702ZM97.6075 7.924H95.7175V15.05H94.7515V11.578C94.1355 11.802 92.6375 12.25 89.7395 12.25H85.8755V11.48H89.4035V8.89H90.3695V11.48C92.5675 11.438 93.8975 11.228 94.7515 10.962V2.702H95.7175V7.154H97.6075V7.924ZM86.7715 4.102V3.332H92.9735V4.102H90.3695V5.124C90.3695 6.566 91.8815 7.602 93.4775 8.47L93.0435 9.128C91.5315 8.274 90.3275 7.406 89.8795 6.51C89.4315 7.406 88.2275 8.428 86.7155 9.268L86.2395 8.652C87.8355 7.784 89.3895 6.566 89.3895 5.124V4.102H86.7715ZM109.058 13.23H97.5778V12.46H102.842V9.8H100.392C99.7058 9.8 99.3838 9.478 99.3838 8.792V6.132H106.286V4.032H99.3838V3.262H107.098C107.196 3.262 107.252 3.318 107.252 3.416V6.874H100.35V8.792C100.35 8.932 100.448 9.03 100.588 9.03H107.532V9.8H103.808V12.46H109.058V13.23ZM122.682 15.05H121.716V2.702H122.682V15.05ZM116.2 10.92C114.072 10.92 112.854 9.352 112.854 7.028C112.854 4.704 114.072 3.136 116.2 3.136C118.328 3.136 119.546 4.704 119.546 7.028C119.546 9.352 118.328 10.92 116.2 10.92ZM116.2 3.878C114.66 3.878 113.792 5.208 113.792 7.028C113.792 8.848 114.66 10.178 116.2 10.178C117.74 10.178 118.608 8.848 118.608 7.028C118.608 5.208 117.74 3.878 116.2 3.878ZM129.736 11.774C128.924 11.13 127.706 9.604 127.188 8.568C126.712 9.716 125.452 11.172 124.43 11.97L123.926 11.41C125.494 10.094 126.712 8.568 126.712 6.678V5.292H124.332V4.522H126.712V2.534H127.678V4.522H130.044V5.292H127.678V6.678C127.678 8.568 129.036 10.164 130.24 11.242L129.736 11.774ZM132.186 14.672H131.248V7.966H129.386V7.21H131.248V2.772H132.186V14.672ZM133.628 2.702H134.566V15.05H133.628V2.702ZM148.863 15.05H147.897V2.702H148.863V15.05ZM145.965 11.424C145.111 10.934 143.347 9.212 142.801 8.092C142.297 9.268 140.659 10.976 139.595 11.634L139.035 11.032C140.645 9.912 142.325 8.162 142.325 6.328V3.136H143.291V6.328C143.291 8.148 145.195 9.898 146.455 10.766L145.965 11.424ZM157.377 8.666C155.389 8.666 154.115 7.406 154.115 5.726C154.115 4.046 155.389 2.786 157.377 2.786C159.365 2.786 160.639 4.046 160.639 5.726C160.639 7.406 159.365 8.666 157.377 8.666ZM163.915 9.982V15.036C163.915 15.134 163.859 15.19 163.761 15.19H157.153C156.467 15.19 156.145 14.868 156.145 14.182V9.982H157.083V11.76H162.977V9.982H163.915ZM157.377 3.528C155.949 3.528 155.053 4.438 155.053 5.726C155.053 7.014 155.949 7.924 157.377 7.924C158.805 7.924 159.701 7.014 159.701 5.726C159.701 4.438 158.805 3.528 157.377 3.528ZM162.977 14.42V12.502H157.083V14.182C157.083 14.322 157.181 14.42 157.321 14.42H162.977ZM163.915 8.89H162.949V2.702H163.915V8.89ZM168.071 15.19C167.385 15.19 167.063 14.868 167.063 14.182V10.248H175.099V15.036C175.099 15.134 175.043 15.19 174.945 15.19H168.071ZM174.161 14.448V10.99H168.001V14.21C168.001 14.35 168.099 14.448 168.239 14.448H174.161ZM174.819 4.998C174.819 5.866 174.637 6.818 174.413 7.518H176.821V8.26H165.341V7.518H173.531C173.741 6.804 173.853 5.824 173.853 5.166V3.78H167.133V3.01H174.497C174.721 3.01 174.819 3.108 174.819 3.332V4.998ZM191.663 9.996H180.183V9.24H191.663V9.996ZM190.221 14.266V15.036H182.913C182.227 15.036 181.905 14.714 181.905 14.028V11.326H182.871V14.028C182.871 14.168 182.969 14.266 183.109 14.266H190.221ZM185.923 8.176C183.739 8.176 182.381 7.112 182.381 5.418C182.381 3.724 183.739 2.66 185.923 2.66C188.107 2.66 189.465 3.724 189.465 5.418C189.465 7.112 188.107 8.176 185.923 8.176ZM185.923 3.402C184.341 3.402 183.319 4.186 183.319 5.418C183.319 6.65 184.341 7.434 185.923 7.434C187.505 7.434 188.527 6.65 188.527 5.418C188.527 4.186 187.505 3.402 185.923 3.402ZM202.54 10.108H201.602V6.58H199.852V9.548H198.914V2.772H199.852V5.824H201.602V2.702H202.54V10.108ZM198.774 15.61C196.618 15.61 195.232 14.686 195.232 12.992C195.232 11.298 196.618 10.374 198.774 10.374C200.93 10.374 202.316 11.298 202.316 12.992C202.316 14.686 200.93 15.61 198.774 15.61ZM198.774 11.116C197.15 11.116 196.17 11.746 196.17 12.992C196.17 14.238 197.15 14.868 198.774 14.868C200.398 14.868 201.378 14.238 201.378 12.992C201.378 11.746 200.398 11.116 198.774 11.116ZM194.518 3.794V2.254H195.456V3.794H198.116V4.55H191.802V3.794H194.518ZM194.98 9.884C193.342 9.884 192.208 9.002 192.208 7.546C192.208 6.09 193.342 5.208 194.98 5.208C196.618 5.208 197.752 6.09 197.752 7.546C197.752 9.002 196.618 9.884 194.98 9.884ZM194.98 5.95C193.874 5.95 193.118 6.552 193.118 7.546C193.118 8.54 193.874 9.142 194.98 9.142C196.086 9.142 196.842 8.54 196.842 7.546C196.842 6.552 196.086 5.95 194.98 5.95ZM207.69 9.184C205.814 9.184 204.302 8.092 204.302 6.118C204.302 4.144 205.814 3.052 207.69 3.052C209.566 3.052 211.078 4.144 211.078 6.118C211.078 8.092 209.566 9.184 207.69 9.184ZM213.682 15.05H212.716V11.312C212.058 11.55 210.434 11.97 207.62 11.97H203.616V11.2H207.452C210.07 11.2 211.75 10.99 212.716 10.71V2.702H213.682V15.05ZM207.69 3.808C206.346 3.808 205.254 4.55 205.254 6.118C205.254 7.686 206.346 8.428 207.69 8.428C209.034 8.428 210.126 7.686 210.126 6.118C210.126 4.55 209.034 3.808 207.69 3.808ZM224.926 11.424C224.072 10.934 222.308 9.212 221.762 8.092C221.258 9.268 219.62 10.976 218.556 11.634L217.996 11.032C219.606 9.912 221.286 8.162 221.286 6.328V3.136H222.252V6.328C222.252 8.148 224.156 9.898 225.416 10.766L224.926 11.424ZM229.77 7.658H227.74V15.05H226.774V2.702H227.74V6.902H229.77V7.658ZM236.517 15.61C234.361 15.61 232.975 14.49 232.975 12.754C232.975 11.018 234.361 9.898 236.517 9.898C238.673 9.898 240.059 11.018 240.059 12.754C240.059 14.49 238.673 15.61 236.517 15.61ZM236.517 10.64C234.893 10.64 233.913 11.466 233.913 12.754C233.913 14.042 234.893 14.868 236.517 14.868C238.141 14.868 239.121 14.042 239.121 12.754C239.121 11.466 238.141 10.64 236.517 10.64ZM236.825 9.212C235.957 8.806 234.319 7.532 233.773 6.664C233.227 7.672 231.701 9.002 230.623 9.548L230.091 8.988C231.729 8.064 233.269 6.86 233.269 4.984V3.836H230.651V3.066H236.797V3.836H234.235V4.97C234.235 6.762 235.985 7.896 237.273 8.596L236.825 9.212ZM236.503 6.16V5.404H239.177V2.702H240.143V9.73H239.177V6.16H236.503ZM244.523 10.822C242.871 10.822 241.695 9.646 241.695 7.014C241.695 4.382 242.871 3.206 244.523 3.206C246.077 3.206 247.211 4.242 247.337 6.566H248.709V2.772H249.647V14.672H248.709V7.322H247.337C247.253 9.758 246.105 10.822 244.523 10.822ZM244.523 3.948C243.375 3.948 242.605 4.942 242.605 7.014C242.605 9.086 243.375 10.08 244.523 10.08C245.671 10.08 246.441 9.086 246.441 7.014C246.441 4.942 245.671 3.948 244.523 3.948ZM251.089 2.702H252.027V15.05H251.089V2.702ZM261.479 11.186C261.059 11.186 260.779 11.074 260.625 10.836C260.247 10.976 259.701 11.144 259.099 11.2C258.595 11.256 258.007 11.27 257.643 11.27C256.957 11.27 256.635 10.948 256.635 10.262V3.57C256.635 3.472 256.691 3.416 256.789 3.416H259.827V4.186H257.573V10.262C257.573 10.402 257.671 10.5 257.811 10.5C258.329 10.5 258.735 10.5 259.169 10.458C259.813 10.388 260.163 10.318 260.471 10.234V10.178V3.57C260.471 3.472 260.527 3.416 260.625 3.416H263.915V4.186H261.409V10.178C261.409 10.318 261.507 10.416 261.647 10.416C262.165 10.416 262.795 10.388 263.229 10.346C263.915 10.29 264.699 10.136 265.133 10.01V2.702H266.099V6.902H267.989V7.658H266.099V15.05H265.133V10.654C264.671 10.808 263.873 10.99 263.159 11.088C262.655 11.158 261.843 11.186 261.479 11.186ZM274.021 7.644H269.639V10.416C269.639 10.556 269.737 10.654 269.877 10.654C270.675 10.654 271.963 10.64 272.761 10.626C274.105 10.598 275.533 10.444 276.611 10.122V2.702H277.577V6.902H279.607V7.658H277.577V15.05H276.611V10.738C275.589 11.088 274.259 11.368 272.719 11.396C271.837 11.41 270.563 11.424 269.681 11.424C268.995 11.424 268.673 11.102 268.673 10.416V6.902H273.055V4.116H268.673V3.346H273.867C273.965 3.346 274.021 3.402 274.021 3.5V7.644ZM293.54 15.05H292.602V8.134H290.95V14.672H290.012V2.772H290.95V7.378H292.602V2.702H293.54V15.05ZM285.532 4.522V2.534H286.47V4.522H289.144V5.292H282.774V4.522H285.532ZM285.994 11.984C284.328 11.984 283.18 10.948 283.18 9.058C283.18 7.168 284.328 6.132 285.994 6.132C287.66 6.132 288.808 7.168 288.808 9.058C288.808 10.948 287.66 11.984 285.994 11.984ZM285.994 6.874C284.846 6.874 284.09 7.686 284.09 9.058C284.09 10.43 284.846 11.242 285.994 11.242C287.142 11.242 287.898 10.43 287.898 9.058C287.898 7.686 287.142 6.874 285.994 6.874ZM306.068 6.118H304.038V9.646H303.072V2.702H304.038V5.362H306.068V6.118ZM300.412 15.61C298.256 15.61 296.87 14.49 296.87 12.754C296.87 11.018 298.256 9.898 300.412 9.898C302.568 9.898 303.954 11.018 303.954 12.754C303.954 14.49 302.568 15.61 300.412 15.61ZM300.412 10.64C298.788 10.64 297.808 11.466 297.808 12.754C297.808 14.042 298.788 14.868 300.412 14.868C302.036 14.868 303.016 14.042 303.016 12.754C303.016 11.466 302.036 10.64 300.412 10.64ZM295.96 3.836V7.756C295.96 7.896 296.058 7.994 296.198 7.994C297.024 7.994 298.004 7.98 298.802 7.952C299.978 7.91 301.154 7.784 301.896 7.644L301.952 8.274C301.238 8.442 300.076 8.638 298.746 8.708C297.864 8.75 296.884 8.764 296.002 8.764C295.316 8.764 294.994 8.442 294.994 7.756V3.22C294.994 3.122 295.05 3.066 295.148 3.066H300.804V3.836H295.96ZM314.554 5.04C314.554 5.152 314.554 5.264 314.54 5.362H316.332V2.772H317.27V14.672H316.332V9.758H313.84V9.002H316.332V6.118H314.456C314.008 8.568 312.104 10.486 310.074 11.746L309.556 11.172C311.936 9.604 313.588 7.7 313.588 5.278V4.27H309.962V3.5H314.232C314.456 3.5 314.554 3.598 314.554 3.822V5.04ZM318.922 2.702H319.86V15.05H318.922V2.702ZM33.068 26.924H31.178V34.05H30.212V30.578C29.596 30.802 28.098 31.25 25.2 31.25H21.336V30.48H24.864V27.89H25.83V30.48C28.028 30.438 29.358 30.228 30.212 29.962V21.702H31.178V26.154H33.068V26.924ZM22.232 23.102V22.332H28.434V23.102H25.83V24.124C25.83 25.566 27.342 26.602 28.938 27.47L28.504 28.128C26.992 27.274 25.788 26.406 25.34 25.51C24.892 26.406 23.688 27.428 22.176 28.268L21.7 27.652C23.296 26.784 24.85 25.566 24.85 24.124V23.102H22.232ZM37.3084 28.184C35.4324 28.184 33.9204 27.092 33.9204 25.118C33.9204 23.144 35.4324 22.052 37.3084 22.052C39.1844 22.052 40.6964 23.144 40.6964 25.118C40.6964 27.092 39.1844 28.184 37.3084 28.184ZM43.3004 34.05H42.3344V30.312C41.6764 30.55 40.0524 30.97 37.2384 30.97H33.2344V30.2H37.0704C39.6884 30.2 41.3684 29.99 42.3344 29.71V21.702H43.3004V34.05ZM37.3084 22.808C35.9644 22.808 34.8724 23.55 34.8724 25.118C34.8724 26.686 35.9644 27.428 37.3084 27.428C38.6524 27.428 39.7444 26.686 39.7444 25.118C39.7444 23.55 38.6524 22.808 37.3084 22.808ZM51.5345 27.666C49.5465 27.666 48.2725 26.406 48.2725 24.726C48.2725 23.046 49.5465 21.786 51.5345 21.786C53.5225 21.786 54.7965 23.046 54.7965 24.726C54.7965 26.406 53.5225 27.666 51.5345 27.666ZM58.0725 28.982V34.036C58.0725 34.134 58.0165 34.19 57.9185 34.19H51.3105C50.6245 34.19 50.3025 33.868 50.3025 33.182V28.982H51.2405V30.76H57.1345V28.982H58.0725ZM51.5345 22.528C50.1065 22.528 49.2105 23.438 49.2105 24.726C49.2105 26.014 50.1065 26.924 51.5345 26.924C52.9625 26.924 53.8585 26.014 53.8585 24.726C53.8585 23.438 52.9625 22.528 51.5345 22.528ZM57.1345 33.42V31.502H51.2405V33.182C51.2405 33.322 51.3385 33.42 51.4785 33.42H57.1345ZM58.0725 27.89H57.1065V21.702H58.0725V27.89ZM62.2289 34.19C61.5429 34.19 61.2209 33.868 61.2209 33.182V29.248H69.2569V34.036C69.2569 34.134 69.2009 34.19 69.1029 34.19H62.2289ZM68.3189 33.448V29.99H62.1589V33.21C62.1589 33.35 62.2569 33.448 62.3969 33.448H68.3189ZM68.9769 23.998C68.9769 24.866 68.7949 25.818 68.5709 26.518H70.9789V27.26H59.4989V26.518H67.6889C67.8989 25.804 68.0109 24.824 68.0109 24.166V22.78H61.2909V22.01H68.6549C68.8789 22.01 68.9769 22.108 68.9769 22.332V23.998ZM81.3793 34.05H80.4133V21.702H81.3793V34.05ZM74.8973 29.92C72.7693 29.92 71.5513 28.352 71.5513 26.028C71.5513 23.704 72.7693 22.136 74.8973 22.136C77.0253 22.136 78.2433 23.704 78.2433 26.028C78.2433 28.352 77.0253 29.92 74.8973 29.92ZM74.8973 22.878C73.3573 22.878 72.4893 24.208 72.4893 26.028C72.4893 27.848 73.3573 29.178 74.8973 29.178C76.4373 29.178 77.3053 27.848 77.3053 26.028C77.3053 24.208 76.4373 22.878 74.8973 22.878ZM86.6735 22.57C86.6735 22.472 86.7295 22.416 86.8275 22.416H92.4835V23.186H87.6395V29.094C87.6395 29.234 87.7375 29.332 87.8775 29.332C88.6755 29.332 89.9635 29.318 90.7615 29.304C92.1055 29.276 93.5335 29.122 94.6115 28.8V21.702H95.5775V25.902H97.6075V26.658H95.5775V34.05H94.6115V29.416C93.5895 29.766 92.2595 30.046 90.7195 30.074C89.8375 30.088 88.5635 30.102 87.6815 30.102C86.9955 30.102 86.6735 29.78 86.6735 29.094V22.57ZM109.058 32.09H97.5778V31.32H102.842V28.03H103.808V31.32H109.058V32.09ZM103.808 23.928C103.808 25.37 106.37 27.036 107.966 27.694L107.462 28.338C105.824 27.68 103.878 26.182 103.318 25.23C102.758 26.182 100.812 27.68 99.1738 28.338L98.6698 27.694C100.266 27.036 102.828 25.37 102.828 23.928V22.052H103.808V23.928ZM119.504 30.634C118.65 30.144 116.886 28.422 116.34 27.302C115.836 28.478 114.198 30.186 113.134 30.844L112.574 30.242C114.184 29.122 115.864 27.414 115.864 25.538V23.186H113.204V22.416H119.476V23.186H116.83V25.538C116.83 27.4 118.734 29.108 119.994 29.976L119.504 30.634ZM122.612 34.05H121.646V21.702H122.612V34.05ZM127.622 28.282C125.676 28.282 124.36 27.036 124.36 25.104C124.36 23.172 125.676 21.926 127.622 21.926C128.728 21.926 129.624 22.332 130.198 23.032H133.334V21.702H134.3V30.648H133.334V27.162H130.212C129.638 27.876 128.728 28.282 127.622 28.282ZM127.622 22.668C126.152 22.668 125.298 23.648 125.298 25.104C125.298 26.56 126.152 27.54 127.622 27.54C129.092 27.54 129.946 26.56 129.946 25.104C129.946 23.648 129.092 22.668 127.622 22.668ZM134.65 33.266V34.036H127.594C126.908 34.036 126.586 33.714 126.586 33.028V30.032H127.552V33.028C127.552 33.168 127.65 33.266 127.79 33.266H134.65ZM130.884 25.104C130.884 25.58 130.8 26.028 130.646 26.406H133.334V23.788H130.646C130.8 24.18 130.884 24.628 130.884 25.104ZM138.009 31.32H144.953V29.85H138.009V29.094H145.765C145.863 29.094 145.919 29.15 145.919 29.248V32.048H138.975V33.336C138.975 33.476 139.073 33.574 139.213 33.574H146.199V34.33H139.017C138.331 34.33 138.009 34.008 138.009 33.322V31.32ZM136.791 22.066C136.791 21.968 136.847 21.912 136.945 21.912H142.951V22.682H137.757V24.418C137.757 24.558 137.855 24.656 137.995 24.656H143.035V25.426H140.487V26.994C141.971 26.938 143.413 26.826 144.071 26.728L144.127 27.358C143.161 27.54 141.411 27.764 139.325 27.764H135.853V27.008H139.185H139.521V25.426H137.799C137.113 25.426 136.791 25.104 136.791 24.418V22.066ZM145.919 28.212H144.953V21.702H145.919V28.212ZM155.763 34.05V29.388H150.499V28.618H161.979V29.388H156.729V34.05H155.763ZM156.239 24.432C155.693 25.258 153.677 26.532 152.053 27.064L151.577 26.448C153.187 25.916 155.749 24.628 155.749 23.27V21.772H156.729V23.27C156.729 24.628 159.291 25.902 160.901 26.434L160.425 27.064C158.801 26.532 156.785 25.258 156.239 24.432ZM175.533 28.492H174.567V21.702H175.533V28.492ZM171.739 34.274C171.039 33.966 169.821 32.636 169.429 31.74C169.051 32.678 167.791 33.854 167.119 34.26L166.573 33.644C167.595 33 168.953 31.67 168.953 30.494V29.402H169.891V30.494C169.891 31.516 171.081 32.93 171.739 33.364C172.397 32.93 173.587 31.516 173.587 30.494V29.402H174.525V30.494C174.525 31.67 175.883 33 176.905 33.644L176.359 34.26C175.687 33.854 174.427 32.678 174.049 31.74C173.657 32.636 172.439 33.966 171.739 34.274ZM168.995 27.89C167.007 27.89 165.733 26.686 165.733 24.838C165.733 22.99 167.007 21.786 168.995 21.786C170.983 21.786 172.257 22.99 172.257 24.838C172.257 26.686 170.983 27.89 168.995 27.89ZM168.995 22.528C167.567 22.528 166.671 23.424 166.671 24.838C166.671 26.252 167.567 27.148 168.995 27.148C170.423 27.148 171.319 26.252 171.319 24.838C171.319 23.424 170.423 22.528 168.995 22.528ZM186.717 29.22V34.036C186.717 34.134 186.661 34.19 186.563 34.19H179.689C179.003 34.19 178.681 33.868 178.681 33.182V29.22H179.619V30.844H185.779V29.22H186.717ZM185.779 33.42V31.586H179.619V33.182C179.619 33.322 179.717 33.42 179.857 33.42H185.779ZM182.699 23.774C182.125 24.6 180.277 25.622 178.569 26.126L178.121 25.51C179.717 25.02 182.209 23.956 182.209 22.458V21.66H183.189V22.458C183.189 23.956 185.681 25.02 187.277 25.51L186.829 26.126C185.121 25.622 183.273 24.6 182.699 23.774ZM188.439 27.946H176.959V27.19H188.439V27.946ZM190.748 22.346V28.982C190.748 29.122 190.846 29.22 190.986 29.22C191.784 29.22 193.142 29.206 193.94 29.192C195.256 29.164 196.656 29.01 197.734 28.702V21.702H198.7V34.05H197.734V29.332C196.712 29.668 195.41 29.934 193.898 29.962C193.016 29.976 191.672 29.99 190.79 29.99C190.104 29.99 189.782 29.668 189.782 28.982V22.346H190.748ZM200.91 22.57C200.91 22.472 200.966 22.416 201.064 22.416H206.72V23.186H201.876V29.094C201.876 29.234 201.974 29.332 202.114 29.332C202.912 29.332 204.2 29.318 204.998 29.304C206.342 29.276 207.77 29.122 208.848 28.8V21.702H209.814V25.902H211.844V26.658H209.814V34.05H208.848V29.416C207.826 29.766 206.496 30.046 204.956 30.074C204.074 30.088 202.8 30.102 201.918 30.102C201.232 30.102 200.91 29.78 200.91 29.094V22.57ZM212.305 32.79C212.305 32.3 212.641 32.006 213.089 32.006C213.537 32.006 213.873 32.3 213.873 32.79C213.873 33.28 213.537 33.574 213.089 33.574C212.641 33.574 212.305 33.28 212.305 32.79Z" fill="#696E76"/>
<circle cx="8" cy="10" r="8" fill="#818B95"/>
<path d="M8 6L8 12" stroke="white" stroke-width="1.4" stroke-linecap="round" stroke-linejoin="round"/>
<circle cx="7.9998" cy="14.2" r="0.7" fill="white"/>
</svg>
