<svg width="200" height="20" viewBox="0 0 200 20" fill="none" xmlns="http://www.w3.org/2000/svg">
<path d="M35.872 16.768H34.8V8.432H32.704V12.432L28.544 12.832C27.712 12.896 27.232 12.368 27.232 11.536V3.984H32.528C32.64 3.984 32.704 4.048 32.704 4.16V7.568H34.8V3.168H35.872V16.768ZM31.664 11.68V4.864H28.272V11.552C28.272 11.76 28.416 11.936 28.624 11.92L31.664 11.68ZM37.52 3.088H38.592V17.2H37.52V3.088ZM51.6461 17.2H50.5421V3.088H51.6461V17.2ZM48.3341 13.056C47.3581 12.496 45.3421 10.528 44.7181 9.248C44.1421 10.592 42.2701 12.544 41.0541 13.296L40.4141 12.608C42.2541 11.328 44.1741 9.328 44.1741 7.232V3.584H45.2781V7.232C45.2781 9.312 47.4541 11.312 48.8941 12.304L48.3341 13.056ZM62.0923 13.296C61.1163 12.736 59.1003 10.768 58.4763 9.488C57.9003 10.832 56.0283 12.784 54.8123 13.536L54.1723 12.848C56.0123 11.568 57.9323 9.616 57.9323 7.472V4.784H54.8923V3.904H62.0603V4.784H59.0363V7.472C59.0363 9.6 61.2123 11.552 62.6523 12.544L62.0923 13.296ZM65.6443 17.2H64.5403V3.088H65.6443V17.2ZM74.6184 5.808C74.6184 9.536 71.6904 12.192 68.4744 13.76L68.0424 13.04C70.2344 11.92 72.2824 10.272 73.1144 8.144C72.6984 8.368 71.9624 8.592 70.6984 8.592H67.9304V7.712H70.5704C72.0264 7.712 72.7464 7.584 73.3544 7.36C73.4504 6.96 73.5144 6.528 73.5144 6.08V4.8H68.3144V3.92H74.2504C74.5064 3.92 74.6184 4.032 74.6184 4.288V5.808ZM80.9064 9.056H78.5864V17.2H77.4824V3.088H78.5864V8.176H80.9064V9.056ZM94.6325 14.8H81.5125V13.92H94.6325V14.8ZM83.5765 4.144C83.5765 4.032 83.6405 3.968 83.7525 3.968H92.6165V4.848H84.6805V9.232C84.6805 9.392 84.7925 9.504 84.9525 9.504H92.7925V10.384H84.7285C83.9445 10.384 83.5765 10.016 83.5765 9.232V4.144Z" fill="#26282C"/>
<rect x="-0.75" y="0.75" width="17.5" height="13.5" rx="1.25" transform="matrix(-1 0 0 1 17.5 3)" stroke="#484B51" stroke-width="1.5"/>
<path d="M17.1006 4.875L10.1541 10.8732C9.77873 11.1973 9.22244 11.1973 8.84703 10.8732L1.90059 4.875" stroke="#484B51" stroke-width="1.5" stroke-linecap="round" stroke-linejoin="round"/>
<path d="M151.04 17.84C148.544 17.84 146.832 16.688 146.832 14.64C146.832 12.592 148.544 11.44 151.04 11.44C153.536 11.44 155.248 12.592 155.248 14.64C155.248 16.688 153.536 17.84 151.04 17.84ZM151.04 12.288C149.072 12.288 147.904 13.152 147.904 14.64C147.904 16.128 149.072 16.992 151.04 16.992C153.008 16.992 154.176 16.128 154.176 14.64C154.176 13.152 153.008 12.288 151.04 12.288ZM157.6 10.08H144.48V9.216H149.632V6.624H150.736V9.216H157.6V10.08ZM155.392 4.912C155.392 6.192 155.12 7.36 154.8 8.16L153.872 8.032C154.144 7.216 154.288 6.032 154.288 5.104V4.32H146.528V3.44H155.024C155.28 3.44 155.392 3.552 155.392 3.808V4.912ZM164.958 9.792C162.398 9.792 160.59 8.592 160.59 6.4C160.59 4.208 162.398 3.008 164.958 3.008C167.518 3.008 169.326 4.208 169.326 6.4C169.326 8.592 167.518 9.792 164.958 9.792ZM164.958 3.856C162.91 3.856 161.662 4.736 161.662 6.4C161.662 8.064 162.91 8.944 164.958 8.944C167.006 8.944 168.254 8.064 168.254 6.4C168.254 4.736 167.006 3.856 164.958 3.856ZM166.974 17.2V12.16H163.006V14.432C163.006 15.472 162.83 16.32 162.494 17.264L161.502 17.136C161.79 16.224 161.934 15.296 161.934 14.336V12.16H158.398V11.28H171.518V12.16H168.046V17.2H166.974ZM185.628 9.872H183.308V17.2H182.204V3.088H183.308V9.008H185.628V9.872ZM175.836 5.168V2.816H176.94V5.168H180.636V6.048H172.108V5.168H175.836ZM176.38 13.76C174.46 13.76 172.892 12.544 172.892 10.384C172.892 8.224 174.46 7.008 176.38 7.008C178.3 7.008 179.868 8.224 179.868 10.384C179.868 12.544 178.3 13.76 176.38 13.76ZM176.38 7.856C174.956 7.856 173.964 8.816 173.964 10.384C173.964 11.952 174.956 12.912 176.38 12.912C177.804 12.912 178.796 11.952 178.796 10.384C178.796 8.816 177.804 7.856 176.38 7.856ZM197.642 17.2H196.538V3.088H197.642V17.2ZM193.338 5.648C193.338 9.376 190.49 11.952 187.274 13.52L186.842 12.8C189.706 11.328 192.234 9.088 192.234 5.92V4.8H187.114V3.92H192.97C193.226 3.92 193.338 4.032 193.338 4.288V5.648Z" fill="#26282C"/>
<path d="M132.296 5.27222L121.496 10.84" stroke="#484B51" stroke-width="1.5" stroke-miterlimit="10" stroke-linecap="round" stroke-linejoin="round"/>
<path d="M121.496 10.0728L132.296 15.6409" stroke="#484B51" stroke-width="1.5" stroke-miterlimit="10" stroke-linecap="round" stroke-linejoin="round"/>
<path d="M131.288 8.09596C132.41 8.09596 133.32 7.18616 133.32 6.06385C133.32 4.94155 132.41 4.03174 131.288 4.03174C130.166 4.03174 129.256 4.94155 129.256 6.06385C129.256 7.18616 130.166 8.09596 131.288 8.09596Z" fill="white"/>
<path d="M133.48 5.43132C133.48 4.31265 132.575 3.408 131.456 3.408C130.338 3.408 129.433 4.31265 129.433 5.43132C129.433 6.55 130.338 7.45465 131.456 7.45465C132.575 7.45465 133.48 6.55 133.48 5.43132ZM129.156 5.43132C129.156 4.15863 130.183 3.13147 131.456 3.13147C132.729 3.13147 133.756 4.15863 133.756 5.43132C133.756 6.70401 132.729 7.73117 131.456 7.73117C130.183 7.73117 129.156 6.70401 129.156 5.43132Z" fill="#2D2F34" stroke="#484B51"/>
<path d="M131.288 16.896C132.41 16.896 133.32 15.9863 133.32 14.8641C133.32 13.7419 132.41 12.8322 131.288 12.8322C130.166 12.8322 129.256 13.7419 129.256 14.8641C129.256 15.9863 130.166 16.896 131.288 16.896Z" fill="white"/>
<path d="M133.48 15.0321C133.48 13.9133 132.575 13.0085 131.456 13.0085C130.338 13.0085 129.433 13.9133 129.433 15.0321C129.433 16.1508 130.338 17.0556 131.456 17.0556C132.575 17.0556 133.48 16.1508 133.48 15.0321ZM129.156 15.0321C129.156 13.7591 130.183 12.7318 131.456 12.7318C132.729 12.7318 133.756 13.7591 133.756 15.0321C133.756 16.305 132.729 17.3323 131.456 17.3323C130.183 17.3323 129.156 16.305 129.156 15.0321Z" fill="#2D2F34" stroke="#484B51"/>
<path d="M122.489 12.0961C123.611 12.0961 124.521 11.1863 124.521 10.064C124.521 8.94167 123.611 8.03186 122.489 8.03186C121.367 8.03186 120.457 8.94167 120.457 10.064C120.457 11.1863 121.367 12.0961 122.489 12.0961Z" fill="white"/>
<path d="M123.88 10.2319C123.88 9.11316 122.975 8.20835 121.857 8.20835C120.738 8.20835 119.833 9.11316 119.833 10.2319C119.833 11.3506 120.738 12.2554 121.857 12.2554C122.975 12.2554 123.88 11.3506 123.88 10.2319ZM119.557 10.2319C119.557 8.95892 120.584 7.93164 121.857 7.93164C123.129 7.93164 124.157 8.95892 124.157 10.2319C124.157 11.5049 123.129 12.5321 121.857 12.5321C120.584 12.5321 119.557 11.5049 119.557 10.2319Z" fill="#2D2F34" stroke="#484B51"/>
<rect x="108" y="4" width="1" height="12" fill="#C4C4C4"/>
</svg>
