<svg width="32" height="32" viewBox="0 0 32 32" fill="none" xmlns="http://www.w3.org/2000/svg">
<path d="M16 -1.39876e-06C7.16345 -2.17128e-06 2.17128e-06 7.16344 1.39876e-06 16C6.26248e-07 24.8366 7.16344 32 16 32C24.8366 32 32 24.8366 32 16C32 7.16344 24.8366 -6.26248e-07 16 -1.39876e-06Z" fill="#686256"/>
<path d="M26.6409 16.0393L26.4497 15.9183C25.8018 15.2705 24.8964 14.9895 23.6904 15.0597C22.6835 15.1222 21.8874 15.5203 21.2785 15.891C21.2785 15.8832 21.2785 15.8715 21.2785 15.8637C21.2785 15.5476 21.3136 15.208 21.3488 14.8763C21.3839 14.5407 21.419 14.1972 21.419 13.8733C21.419 13.5415 21.38 13.2293 21.2668 12.96C21.2395 12.8898 21.1731 12.8508 21.0951 12.8508C20.7712 12.8586 20.135 13.081 19.9828 13.2137L19.9008 13.3971C19.8969 13.7562 19.815 14.7631 19.7369 14.8841C19.7408 14.8802 19.694 15.0051 19.694 15.0051C19.5574 16.4413 19.5535 17.7019 19.6823 18.783C19.6979 18.8923 19.9047 19.0523 20.0648 19.1147C20.2404 19.1811 20.7946 19.0328 21.1146 18.9118C21.1107 18.9118 21.2356 18.8923 21.2356 18.8923C21.3371 18.8806 21.3956 18.7986 21.3917 18.6815C21.3917 18.6776 21.3995 18.3693 21.3995 18.3693C21.6298 17.4365 22.5586 16.3203 23.6592 16.1525C24.2798 16.0549 24.7715 16.215 25.1618 16.6365C25.2125 16.7106 25.3257 17.3858 24.9159 18.1585C24.6115 18.7323 23.9988 19.2123 23.1948 19.5128C22.4337 19.8016 21.5985 19.9187 20.5643 19.8836C20.5214 19.8563 19.5964 19.2279 19.5964 19.2279C18.7768 18.6542 17.7582 17.9361 16.8371 17.5848C16.6732 17.5224 16.3844 17.2804 16.2088 17.136L16.1151 17.058C15.5844 16.6326 14.5696 15.9574 13.7578 15.4149C13.7578 15.4149 13.391 15.169 13.3207 15.1222C13.3207 15.091 13.3207 15.0285 13.3207 15.0285C13.3442 15.0012 13.8554 14.6968 13.8554 14.6968C14.5696 14.2792 14.9014 14.0723 14.9716 13.967C14.956 13.9826 15.0653 13.9123 15.0653 13.9123C15.0731 13.9084 16.8411 12.9093 16.8411 12.9093C18.5427 11.9726 20.4745 10.9111 21.4854 9.86122L21.5361 9.70121L21.5595 9.5568C21.6259 9.33044 21.6298 9.15872 21.5751 8.95968C21.5595 8.90114 21.5088 8.83479 21.4385 8.82308C20.6463 8.74502 19.6276 9.21726 18.6988 10.0915C18.488 10.2866 18.3124 10.3842 18.129 10.4857L17.9885 10.5637C16.9659 11.1452 14.6555 12.5776 13.4495 13.3503C13.5276 12.0507 13.7696 10.2047 14.0662 8.66307L14.0349 8.47963C14.031 8.47183 13.9101 8.24547 13.9101 8.24547L13.8164 8.07765H13.7735C13.5315 7.95666 13.3363 8.00349 13.1919 8.04252L12.95 8.13229L12.626 8.24937C12.5636 8.26108 12.5168 8.30011 12.4933 8.36255C11.9157 9.75585 11.4357 12.0507 11.3225 13.885C10.1712 13.1513 9.10573 12.6244 8.58276 12.3707L8.56715 12.3629L8.5047 12.3512C8.31737 12.3278 8.0871 12.1873 7.86855 12.0546C7.84513 12.039 7.43144 11.7697 7.43144 11.7697L6.75625 11.3365C6.76016 11.3404 6.58063 11.2974 6.58063 11.2974C6.29182 11.3443 5.74153 11.715 5.57761 11.9687C5.5581 12.0038 5.54639 12.039 5.54639 12.078C5.54639 12.1326 5.562 12.1834 5.57761 12.238L5.60883 12.3746L5.64006 12.4566C5.96009 12.7844 6.77186 13.3347 7.56413 13.7601L8.48519 14.248L9.89409 15.0168C9.89409 15.0246 10.1361 15.208 10.1361 15.208L10.3 15.3017C10.3 15.3017 10.3195 15.3134 10.3312 15.3212C9.95654 15.571 7.76707 17.0345 7.76707 17.0345L6.42061 17.9283C6.29182 18.0141 5.76104 18.2522 5.64396 18.299C5.35125 18.42 5.12879 18.5996 5.03903 18.7986L5 18.8806L5.03513 18.9313L5.1366 19.0094C5.13269 19.0094 5.27319 19.0991 5.27319 19.0991L5.4215 19.2006C5.4254 19.2006 5.562 19.224 5.562 19.224C5.80007 19.2318 6.15132 19.0991 6.80699 18.8103C7.41192 18.5449 9.04719 17.5536 9.74579 17.1321L10.0463 16.9526C10.1712 16.9643 10.3039 16.8589 10.4288 16.7652C10.5693 16.6521 10.8737 16.4647 11.061 16.3828C11.0688 16.3828 11.1742 16.3203 11.2718 16.2657C11.2718 16.2969 11.2718 16.3437 11.2718 16.3437C11.303 18.4864 11.424 20.0436 11.6582 21.2417L11.666 21.2691L11.6894 21.3159C11.8026 21.4837 11.9352 21.9911 12.0523 22.4399L12.3177 23.3336C12.3255 23.3453 12.3919 23.4156 12.3919 23.4156C12.5441 23.521 13.0085 23.6966 13.3168 23.6615L13.3949 23.6537L13.4456 23.5444C13.4729 23.4117 13.4808 23.279 13.4808 23.1346C13.4808 22.9707 13.469 22.7912 13.4534 22.5726L13.4339 22.2487C13.3363 20.7539 13.2388 18.5957 13.2388 17.1594C13.2388 17.1204 13.2388 17.0814 13.2388 17.0463C13.4925 17.2063 14.6048 17.9049 14.6048 17.9049C16.4976 19.1303 19.3505 20.9842 21.0795 21.4759C21.1692 21.5032 21.2629 21.4837 21.3293 21.4174C21.3332 21.4135 21.5946 21.2456 21.5946 21.2456L21.6454 21.2261C21.7429 21.1793 21.8093 21.0115 21.821 20.832C23.2767 20.7578 25.3062 20.1997 26.3912 18.8337C26.8127 18.3029 27 17.6551 27 17.1009C26.9961 16.6482 26.8712 16.2579 26.6409 16.0393Z" fill="#FFBC00"/>
</svg>
