<svg width="20" height="21" viewBox="0 0 20 21" fill="none" xmlns="http://www.w3.org/2000/svg">
<path d="M15.2335 19.3924L17.1085 17.0341C17.2002 16.9424 17.2002 16.8008 17.1085 16.7091L15.2002 14.3008" stroke="#484B51" stroke-width="1.4" stroke-miterlimit="10" stroke-linecap="round" stroke-linejoin="round"/>
<path d="M7.2002 4.80078C7.2002 3.14393 8.54334 1.80078 10.2002 1.80078V1.80078C11.857 1.80078 13.2002 3.14393 13.2002 4.80078V5.80078C13.2002 7.45764 11.857 8.80078 10.2002 8.80078V8.80078C8.54334 8.80078 7.2002 7.45764 7.2002 5.80078V4.80078Z" stroke="#484B51" stroke-width="1.4" stroke-miterlimit="10" stroke-linecap="round"/>
<path d="M16.7002 16.8008H4.2002C3.64791 16.8008 3.2002 16.3531 3.2002 15.8008V13.5655C3.2002 12.1605 3.93739 10.8585 5.14221 10.1356L8.2002 8.30078" stroke="#484B51" stroke-width="1.4" stroke-miterlimit="10" stroke-linecap="round"/>
<path d="M16.2002 10.5L12.7002 8.30078" stroke="#484B51" stroke-width="1.4" stroke-miterlimit="10" stroke-linecap="round"/>
</svg>
