<svg width="24" height="24" viewBox="0 0 24 24" fill="none" xmlns="http://www.w3.org/2000/svg">
<g clip-path="url(#clip0_104_13958)">
<path d="M11.9702 15.21V21.79" stroke="#26282C" stroke-width="1.5" stroke-miterlimit="10" stroke-linecap="round" stroke-linejoin="round"/>
<path d="M11.8901 2.43994C12.3001 2.43994 12.6901 2.58994 12.9901 2.86994L13.0301 2.90994L13.0701 2.94994L19.9201 8.46994C20.2201 8.75994 20.3901 9.16994 20.3901 9.57994V19.8499C20.3901 20.7199 19.6701 21.4299 18.7901 21.4299H5.00014C4.12014 21.4299 3.40014 20.7199 3.40014 19.8499V9.58994C3.40014 9.16994 3.57014 8.76994 3.87014 8.47994L10.7201 2.95994L10.7601 2.91994L10.8001 2.87994C11.0901 2.58994 11.4801 2.43994 11.8901 2.43994ZM11.8901 0.939941C11.1201 0.939941 10.3601 1.21994 9.76014 1.77994L2.86014 7.33994C2.25014 7.92994 1.89014 8.73994 1.89014 9.58994V19.8599C1.89014 21.5599 3.28014 22.9399 4.99014 22.9399H18.7801C20.4901 22.9399 21.8801 21.5599 21.8801 19.8599V9.58994C21.8801 8.73994 21.5301 7.92994 20.9101 7.34994L14.0101 1.78994C13.4301 1.21994 12.6601 0.939941 11.8901 0.939941Z" fill="#26282C"/>
</g>
<defs>
<clipPath id="clip0_104_13958">
<rect width="24" height="24" fill="white"/>
</clipPath>
</defs>
</svg>
