<svg width="22" height="24" viewBox="0 0 22 24" fill="none" xmlns="http://www.w3.org/2000/svg">
<path d="M10.1973 6.76031C10.2868 6.74305 10.3785 6.7453 10.4671 6.76692C10.5557 6.78854 10.6395 6.8291 10.7137 6.88627C10.7879 6.94343 10.851 7.01606 10.8993 7.09996C10.9476 7.18386 10.9802 7.27737 10.9951 7.37509C11.0101 7.47281 11.0072 7.5728 10.9866 7.66928C10.9659 7.76577 10.928 7.85684 10.8749 7.93723C10.8218 8.01762 10.7547 8.08573 10.6773 8.13765C10.5999 8.18956 10.5139 8.22424 10.4242 8.23968C8.79398 8.53875 7.5625 10.155 7.5625 12C7.5625 12.1989 7.49007 12.3897 7.36114 12.5303C7.2322 12.671 7.05734 12.75 6.875 12.75C6.69266 12.75 6.51779 12.671 6.38886 12.5303C6.25993 12.3897 6.1875 12.1989 6.1875 12C6.1875 9.43124 7.91226 7.17843 10.1991 6.76031H10.1973ZM2.0625 16.5V18.75C2.0625 19.1478 2.20737 19.5293 2.46523 19.8107C2.72309 20.092 3.07283 20.25 3.4375 20.25H18.5625C18.9272 20.25 19.2769 20.092 19.5348 19.8107C19.7926 19.5293 19.9375 19.1478 19.9375 18.75V16.5C19.9375 16.1022 19.7926 15.7206 19.5348 15.4393C19.2769 15.158 18.9272 15 18.5625 15V12C18.5625 10.9113 18.365 9.83333 17.9814 8.82828C17.5977 7.82323 17.0355 6.91095 16.3272 6.14404C15.6188 5.37713 14.7783 4.77076 13.8541 4.35987C12.93 3.94898 11.9404 3.74171 10.9424 3.74999C6.80453 3.78374 3.4375 7.52718 3.4375 12.0937V15C3.07283 15 2.72309 15.158 2.46523 15.4393C2.20737 15.7206 2.0625 16.1022 2.0625 16.5ZM17.1875 15H4.8125V12.0937C4.8125 8.34374 7.5668 5.27718 10.9527 5.25H11C12.641 5.25 14.2148 5.96115 15.3752 7.22702C16.5356 8.49289 17.1875 10.2098 17.1875 12V15ZM3.4375 18.75V16.5H18.5625V18.75H3.4375Z" fill="#8C949E"/>
</svg>
