<svg width="20" height="20" viewBox="0 0 20 20" fill="none" xmlns="http://www.w3.org/2000/svg">
<path d="M18.5 15V6.5C18.5 5.39543 17.6046 4.5 16.5 4.5H14.0193C13.8344 4.5 13.6645 4.39791 13.5777 4.23458L12.9383 3.03085C12.7647 2.70419 12.425 2.5 12.0551 2.5H10L7.94485 2.5C7.57496 2.5 7.23528 2.70419 7.06174 3.03085L6.42226 4.23458C6.33549 4.39791 6.16565 4.5 5.9807 4.5H3.5C2.39543 4.5 1.5 5.39543 1.5 6.5V15C1.5 16.1046 2.39543 17 3.5 17H16.5C17.6046 17 18.5 16.1046 18.5 15Z" stroke="#484B51" stroke-width="1.4"/>
<circle cx="10" cy="10.5" r="3.5" stroke="#484B51" stroke-width="1.4"/>
<circle cx="15.5" cy="7.5" r="1" fill="#484B51"/>
</svg>
