<svg width="214" height="24" viewBox="0 0 214 24" fill="none" xmlns="http://www.w3.org/2000/svg">
<rect x="0.5" y="0.5" width="213" height="23" rx="11.5" fill="#F7F7F8" stroke="#EBEEF0"/>
<path d="M39.712 8.04C39.712 8.152 39.712 8.264 39.698 8.362H41.49V5.772H42.428V17.672H41.49V12.758H38.998V12.002H41.49V9.118H39.614C39.166 11.568 37.262 13.486 35.232 14.746L34.714 14.172C37.094 12.604 38.746 10.7 38.746 8.278V7.27H35.12V6.5H39.39C39.614 6.5 39.712 6.598 39.712 6.822V8.04ZM44.08 5.702H45.018V18.05H44.08V5.702ZM58.2464 10.924H56.3564V18.05H55.3904V14.578C54.7744 14.802 53.2764 15.25 50.3784 15.25H46.5144V14.48H50.0424V11.89H51.0084V14.48C53.2064 14.438 54.5364 14.228 55.3904 13.962V5.702H56.3564V10.154H58.2464V10.924ZM47.4104 7.102V6.332H53.6124V7.102H51.0084V8.124C51.0084 9.566 52.5204 10.602 54.1164 11.47L53.6824 12.128C52.1704 11.274 50.9664 10.406 50.5184 9.51C50.0704 10.406 48.8664 11.428 47.3544 12.268L46.8784 11.652C48.4744 10.784 50.0284 9.566 50.0284 8.124V7.102H47.4104ZM60.7227 12.632C59.9947 12.688 59.5747 12.226 59.5747 11.498V6.136H60.5127V8.502H64.3907V6.136H65.3287V8.824H68.2127V5.702H69.1787V14.648H68.2127V9.58H65.3287V12.24L60.7227 12.632ZM64.3907 11.582V9.272H60.5127V11.512C60.5127 11.694 60.6387 11.848 60.8207 11.834L64.3907 11.582ZM69.5287 17.266V18.036H62.4727C61.7867 18.036 61.4647 17.714 61.4647 17.028V14.172H62.4307V17.028C62.4307 17.168 62.5287 17.266 62.6687 17.266H69.5287ZM82.4351 16.37H70.9551V15.6H76.2191V13.668C74.4691 13.556 73.0971 12.758 73.0971 11.12C73.0971 9.342 74.7351 8.558 76.6951 8.558C78.6551 8.558 80.2931 9.342 80.2931 11.12C80.2931 12.744 78.9211 13.542 77.1851 13.668V15.6H82.4351V16.37ZM76.6951 9.3C75.2671 9.3 74.0351 9.832 74.0351 11.12C74.0351 12.408 75.2671 12.94 76.6951 12.94C78.1231 12.94 79.3551 12.408 79.3551 11.12C79.3551 9.832 78.1231 9.3 76.6951 9.3ZM76.2331 7.088V5.394H77.1991V7.088H81.2031V7.844H72.1871V7.088H76.2331ZM92.8074 8.278H85.9054V9.384C85.9054 9.524 86.0034 9.622 86.1434 9.622H93.0874V10.364H85.9474C85.2614 10.364 84.9394 10.042 84.9394 9.356V7.564H91.8414V6.472H84.9394V5.73H92.6534C92.7514 5.73 92.8074 5.786 92.8074 5.884V8.278ZM94.6134 12.184H83.1334V11.428H94.6134V12.184ZM84.8554 15.404H91.9254V14.018H84.8554V13.262H92.7374C92.8354 13.262 92.8914 13.318 92.8914 13.416V16.132H85.8214V17.336C85.8214 17.476 85.9194 17.574 86.0594 17.574H93.1714V18.33H85.8634C85.1774 18.33 84.8554 18.008 84.8554 17.322V15.404ZM99.8096 6.57C99.8096 6.472 99.8656 6.416 99.9636 6.416H105.62V7.186H100.776V13.094C100.776 13.234 100.874 13.332 101.014 13.332C101.812 13.332 103.1 13.318 103.898 13.304C105.242 13.276 106.67 13.122 107.748 12.8V5.702H108.714V9.902H110.744V10.658H108.714V18.05H107.748V13.416C106.726 13.766 105.396 14.046 103.856 14.074C102.974 14.088 101.7 14.102 100.818 14.102C100.132 14.102 99.8096 13.78 99.8096 13.094V6.57ZM121.256 18.05H120.29V5.702H121.256V18.05ZM118.358 14.424C117.504 13.934 115.74 12.212 115.194 11.092C114.69 12.268 113.052 13.976 111.988 14.634L111.428 14.032C113.038 12.912 114.718 11.162 114.718 9.328V6.136H115.684V9.328C115.684 11.148 117.588 12.898 118.848 13.766L118.358 14.424ZM135.286 13.024C134.32 13.206 132.57 13.43 130.484 13.43H127.152V12.674H130.344H130.624V11.722C129.196 11.624 128.16 11.008 128.16 9.79C128.16 8.446 129.434 7.844 131.1 7.844C132.766 7.844 134.04 8.446 134.04 9.79C134.04 11.008 133.004 11.61 131.59 11.722V12.66C133.102 12.618 134.558 12.492 135.23 12.394L135.286 13.024ZM138.884 10.056H136.994V13.738H136.028V5.702H136.994V9.3H138.884V10.056ZM136.994 18.33H136.028V15.39H128.832V14.62H136.84C136.938 14.62 136.994 14.676 136.994 14.774V18.33ZM131.1 8.586C130.12 8.586 129.098 8.922 129.098 9.79C129.098 10.658 130.12 10.994 131.1 10.994C132.08 10.994 133.102 10.644 133.102 9.79C133.102 8.936 132.08 8.586 131.1 8.586ZM130.624 6.542V5.114H131.59V6.542H134.628V7.298H127.53V6.542H130.624ZM149.607 14.648H148.641V5.702H149.607V14.648ZM149.957 17.266V18.036H142.901C142.215 18.036 141.893 17.714 141.893 17.028V14.032H142.859V17.028C142.859 17.168 142.957 17.266 143.097 17.266H149.957ZM143.069 12.282C141.123 12.282 139.807 11.036 139.807 9.104C139.807 7.172 141.123 5.926 143.069 5.926C145.015 5.926 146.331 7.172 146.331 9.104C146.331 11.036 145.015 12.282 143.069 12.282ZM143.069 6.668C141.599 6.668 140.745 7.648 140.745 9.104C140.745 10.56 141.599 11.54 143.069 11.54C144.539 11.54 145.393 10.56 145.393 9.104C145.393 7.648 144.539 6.668 143.069 6.668ZM162.331 18.05H161.393V11.134H159.741V17.672H158.803V5.772H159.741V10.378H161.393V5.702H162.331V18.05ZM154.323 7.522V5.534H155.261V7.522H157.935V8.292H151.565V7.522H154.323ZM154.785 14.984C153.119 14.984 151.971 13.948 151.971 12.058C151.971 10.168 153.119 9.132 154.785 9.132C156.451 9.132 157.599 10.168 157.599 12.058C157.599 13.948 156.451 14.984 154.785 14.984ZM154.785 9.874C153.637 9.874 152.881 10.686 152.881 12.058C152.881 13.43 153.637 14.242 154.785 14.242C155.933 14.242 156.689 13.43 156.689 12.058C156.689 10.686 155.933 9.874 154.785 9.874ZM169.511 8.782C168.965 9.608 166.949 10.742 165.325 11.274L164.835 10.644C166.445 10.112 169.021 8.978 169.021 7.62V6.822H165.437V6.052H173.585V6.822H170.001V7.62C170.001 8.978 172.577 10.112 174.187 10.644L173.697 11.274C172.073 10.742 170.057 9.608 169.511 8.782ZM169.035 18.05V13.388H163.771V12.618H175.251V13.388H170.001V18.05H169.035ZM180.948 10.028V9.272H183.02V5.772H183.958V17.672H183.02V10.028H180.948ZM181.508 14.354C180.696 13.71 179.478 12.184 178.96 11.148C178.484 12.296 177.224 13.752 176.202 14.55L175.656 13.948C177.224 12.632 178.484 11.064 178.484 9.258V6.206H179.45V9.258C179.45 11.064 180.85 12.702 182.054 13.78L181.508 14.354ZM185.47 5.702H186.408V18.05H185.47V5.702ZM193.868 12.464C191.628 12.464 190.046 11.232 190.046 9.188C190.046 7.144 191.628 5.912 193.868 5.912C196.108 5.912 197.69 7.144 197.69 9.188C197.69 11.232 196.108 12.464 193.868 12.464ZM193.868 6.654C192.076 6.654 190.984 7.69 190.984 9.188C190.984 10.686 192.076 11.722 193.868 11.722C195.66 11.722 196.752 10.686 196.752 9.188C196.752 7.69 195.66 6.654 193.868 6.654ZM199.608 16.09H188.128V15.32H191.096V12.8H192.048V15.32H195.576C195.702 14.886 195.828 14.326 195.828 13.724V12.8H196.78V13.626C196.78 14.228 196.612 14.886 196.43 15.32H199.608V16.09ZM200.796 16.79C200.796 16.3 201.132 16.006 201.58 16.006C202.028 16.006 202.364 16.3 202.364 16.79C202.364 17.28 202.028 17.574 201.58 17.574C201.132 17.574 200.796 17.28 200.796 16.79Z" fill="#F23F3F"/>
<circle cx="20" cy="12" r="8" fill="#F23F3F"/>
<rect x="19.1758" y="8" width="1.4" height="5.25" rx="0.7" fill="white"/>
<rect x="19" y="14.2998" width="1.75" height="1.75" rx="0.875" fill="white"/>
</svg>
