<svg width="269" height="38" viewBox="0 0 269 38" fill="none" xmlns="http://www.w3.org/2000/svg">
<rect width="269" height="38" rx="2" fill="#F7F7F8"/>
<path d="M48.1983 19.23H49.4073V23.975C49.4073 24.1137 49.338 24.183 49.1993 24.183H43.0763C42.2617 24.183 41.8543 23.7757 41.8543 22.961V19.23H43.0633V20.816H48.1983V19.23ZM43.1413 18.073C42.682 18.073 42.2573 18.0123 41.8673 17.891C41.486 17.761 41.1523 17.5747 40.8663 17.332C40.589 17.0893 40.368 16.799 40.2033 16.461C40.0473 16.1143 39.9693 15.7243 39.9693 15.291C39.9693 14.8577 40.0473 14.472 40.2033 14.134C40.368 13.7873 40.589 13.4927 40.8663 13.25C41.1523 13.0073 41.486 12.8253 41.8673 12.704C42.2573 12.574 42.682 12.509 43.1413 12.509C43.592 12.509 44.0123 12.574 44.4023 12.704C44.7923 12.8253 45.126 13.0073 45.4033 13.25C45.6893 13.4927 45.9103 13.7873 46.0663 14.134C46.231 14.472 46.3133 14.8577 46.3133 15.291C46.3133 15.7243 46.231 16.1143 46.0663 16.461C45.9103 16.799 45.6893 17.0893 45.4033 17.332C45.126 17.5747 44.7923 17.761 44.4023 17.891C44.0123 18.0123 43.592 18.073 43.1413 18.073ZM43.1413 13.51C42.8553 13.51 42.591 13.5533 42.3483 13.64C42.1143 13.718 41.9107 13.835 41.7373 13.991C41.564 14.1383 41.4253 14.3247 41.3213 14.55C41.226 14.7667 41.1783 15.0137 41.1783 15.291C41.1783 15.5683 41.226 15.8197 41.3213 16.045C41.4253 16.2617 41.564 16.448 41.7373 16.604C41.9107 16.7513 42.1143 16.8683 42.3483 16.955C42.591 17.033 42.8553 17.072 43.1413 17.072C43.4273 17.072 43.6873 17.033 43.9213 16.955C44.164 16.8683 44.372 16.7513 44.5453 16.604C44.7187 16.448 44.853 16.2617 44.9483 16.045C45.0523 15.8197 45.1043 15.5683 45.1043 15.291C45.1043 15.0137 45.0523 14.7667 44.9483 14.55C44.853 14.3247 44.7187 14.1383 44.5453 13.991C44.372 13.835 44.164 13.718 43.9213 13.64C43.6873 13.5533 43.4273 13.51 43.1413 13.51ZM49.4073 18.515H48.1723V12.431H49.4073V18.515ZM48.1983 23.182V21.752H43.0633V22.948C43.0633 23.0173 43.085 23.0737 43.1283 23.117C43.1717 23.1603 43.228 23.182 43.2973 23.182H48.1983ZM53.0068 16.396V17.943C53.0068 18.0123 53.0285 18.0687 53.0718 18.112C53.1151 18.1553 53.1715 18.177 53.2408 18.177C53.6135 18.177 53.9861 18.177 54.3588 18.177C54.7315 18.177 55.1041 18.1683 55.4768 18.151C56.0141 18.1337 56.5298 18.099 57.0238 18.047C57.5178 17.995 57.9685 17.93 58.3758 17.852L58.4408 18.749C58.1028 18.8443 57.6651 18.931 57.1278 19.009C56.5905 19.0783 56.0271 19.1303 55.4378 19.165C55.0218 19.1823 54.6145 19.1953 54.2158 19.204C53.8171 19.204 53.4098 19.204 52.9938 19.204C52.1791 19.204 51.7718 18.7967 51.7718 17.982V15.408H55.6458V13.705H51.7718V12.704H56.6728C56.8115 12.704 56.8808 12.7733 56.8808 12.912V16.396H53.0068ZM57.8168 17.111V16.149H59.6108V14.784H57.8168V13.822H59.6108V12.431H60.8458V19.529H59.6108V17.111H57.8168ZM60.6378 20.205C60.7765 20.205 60.8458 20.2743 60.8458 20.413V24.313H59.6108V21.232H53.0588V20.205H60.6378ZM73.3113 17.267H71.5563V21.206H70.3213V12.431H71.5563V16.253H73.3113V17.267ZM65.0173 13.484V12.08H66.2523V13.484H69.0993V14.459H62.1183V13.484H65.0173ZM65.6283 19.854C65.2296 19.854 64.8526 19.802 64.4973 19.698C64.142 19.594 63.83 19.4423 63.5613 19.243C63.2926 19.0437 63.0803 18.7923 62.9243 18.489C62.7683 18.1857 62.6903 17.839 62.6903 17.449C62.6903 17.059 62.7683 16.7123 62.9243 16.409C63.0803 16.1057 63.2926 15.8543 63.5613 15.655C63.83 15.4557 64.142 15.304 64.4973 15.2C64.8526 15.096 65.2296 15.044 65.6283 15.044C66.027 15.044 66.404 15.096 66.7593 15.2C67.1146 15.304 67.4266 15.4557 67.6953 15.655C67.964 15.8543 68.1763 16.1057 68.3323 16.409C68.4883 16.7123 68.5663 17.059 68.5663 17.449C68.5663 17.839 68.4883 18.1857 68.3323 18.489C68.1763 18.7923 67.964 19.0437 67.6953 19.243C67.4266 19.4423 67.1146 19.594 66.7593 19.698C66.404 19.802 66.027 19.854 65.6283 19.854ZM65.6283 16.019C65.1256 16.019 64.7096 16.1403 64.3803 16.383C64.0596 16.6257 63.8993 16.981 63.8993 17.449C63.8993 17.917 64.0596 18.2723 64.3803 18.515C64.7096 18.7577 65.1256 18.879 65.6283 18.879C66.131 18.879 66.5426 18.7577 66.8633 18.515C67.1926 18.2723 67.3573 17.917 67.3573 17.449C67.3573 16.981 67.1926 16.6257 66.8633 16.383C66.5426 16.1403 66.131 16.019 65.6283 16.019ZM65.2903 22.779C65.2903 22.8483 65.312 22.9047 65.3553 22.948C65.3986 22.9913 65.455 23.013 65.5243 23.013H71.8813V24.04H65.2773C64.4626 24.04 64.0553 23.6327 64.0553 22.818V20.738H65.2903V22.779ZM81.6463 13.172C81.9583 13.172 82.1143 13.328 82.1143 13.64V14.615C82.1143 14.6757 82.11 14.7363 82.1013 14.797C82.1013 14.849 82.1013 14.901 82.1013 14.953H83.5053V12.496H84.6623V23.702H83.5053V19.165H81.4253V18.203H83.5053V15.915H81.9843C81.863 16.4957 81.6723 17.0373 81.4123 17.54C81.1523 18.0427 80.8403 18.5063 80.4763 18.931C80.1123 19.3557 79.705 19.7457 79.2543 20.101C78.8123 20.4477 78.3487 20.764 77.8633 21.05L77.1743 20.283C77.7377 19.9363 78.2447 19.568 78.6953 19.178C79.1547 18.788 79.5447 18.3677 79.8653 17.917C80.1947 17.4663 80.446 16.9897 80.6193 16.487C80.7927 15.9757 80.8793 15.4253 80.8793 14.836V14.199H77.6293V13.172H81.6463ZM85.9753 12.431H87.1583V24.053H85.9753V12.431ZM99.4418 17.787H97.8168V24.053H96.5818V21.05C96.2178 21.1627 95.6631 21.271 94.9178 21.375C94.1725 21.479 93.1888 21.531 91.9668 21.531H88.3398V20.504H91.5508V18.359H92.7858V20.504C93.6698 20.4867 94.4238 20.4433 95.0478 20.374C95.6805 20.3047 96.1918 20.2223 96.5818 20.127V12.431H97.8168V16.773H99.4418V17.787ZM89.1068 14.017V13.016H95.2168V14.017H92.7858V14.732C92.7858 15.0353 92.8725 15.33 93.0458 15.616C93.2191 15.8933 93.4445 16.162 93.7218 16.422C94.0078 16.6733 94.3285 16.9073 94.6838 17.124C95.0391 17.3407 95.3945 17.5313 95.7498 17.696L95.1778 18.528C94.4498 18.1813 93.8215 17.8087 93.2928 17.41C92.7641 17.0113 92.3871 16.6257 92.1618 16.253C91.9365 16.6603 91.5595 17.0763 91.0308 17.501C90.5021 17.9257 89.8738 18.3113 89.1458 18.658L88.5088 17.852C88.8641 17.6873 89.2195 17.4923 89.5748 17.267C89.9388 17.033 90.2638 16.7817 90.5498 16.513C90.8445 16.2443 91.0828 15.9627 91.2648 15.668C91.4468 15.3647 91.5378 15.0527 91.5378 14.732V14.017H89.1068ZM108.917 16.552H102.508V17.982C102.508 18.0513 102.53 18.1077 102.573 18.151C102.617 18.1943 102.673 18.216 102.742 18.216H109.177V19.217H105.719V21.336H110.425V22.363H99.7653V21.336H104.484V19.217H102.495C101.681 19.217 101.273 18.8097 101.273 17.995V15.577H107.682V13.952H101.273V12.951H108.709C108.848 12.951 108.917 13.0203 108.917 13.159V16.552ZM124.415 24.053H123.18V21.102C122.877 21.2233 122.335 21.349 121.555 21.479C120.775 21.6003 119.709 21.661 118.357 21.661H114.73V20.634H118.032V18.619H119.267V20.621C120.212 20.6037 121.009 20.5603 121.659 20.491C122.309 20.413 122.816 20.3177 123.18 20.205V12.431H124.415V24.053ZM115.432 14.888V13.887H118.019V12.145H119.267V13.887H121.854V14.888H119.267V15.122C119.267 15.4253 119.354 15.72 119.527 16.006C119.701 16.2833 119.926 16.552 120.203 16.812C120.489 17.0633 120.81 17.2973 121.165 17.514C121.521 17.7307 121.876 17.9213 122.231 18.086L121.659 18.918C120.931 18.5713 120.303 18.1987 119.774 17.8C119.246 17.4013 118.869 17.0157 118.643 16.643C118.418 17.0503 118.041 17.4663 117.512 17.891C116.984 18.3157 116.355 18.7013 115.627 19.048L114.99 18.242C115.346 18.0773 115.701 17.8823 116.056 17.657C116.42 17.423 116.745 17.1717 117.031 16.903C117.326 16.6343 117.564 16.3527 117.746 16.058C117.928 15.7547 118.019 15.4427 118.019 15.122V14.888H115.432ZM125.896 18.502V17.475H133.332C133.366 17.3103 133.401 17.1197 133.436 16.903C133.479 16.6863 133.514 16.461 133.54 16.227C133.566 15.993 133.587 15.7633 133.605 15.538C133.622 15.304 133.631 15.1003 133.631 14.927V13.874H127.391V12.847H134.398C134.71 12.847 134.866 13.003 134.866 13.315V14.771C134.866 14.979 134.853 15.2043 134.827 15.447C134.801 15.6897 134.766 15.9323 134.723 16.175C134.688 16.4177 134.645 16.6517 134.593 16.877C134.549 17.1023 134.502 17.3017 134.45 17.475H136.556V18.502H125.896ZM128.561 19.971V22.779C128.561 22.8483 128.582 22.9047 128.626 22.948C128.669 22.9913 128.725 23.013 128.795 23.013H135.386V24.04H128.548C127.733 24.04 127.326 23.6327 127.326 22.818V19.971H128.561ZM140.038 20.153C139.64 20.153 139.271 20.0793 138.933 19.932C138.604 19.7847 138.314 19.5637 138.062 19.269C137.82 18.9657 137.629 18.5887 137.49 18.138C137.352 17.6787 137.282 17.1413 137.282 16.526C137.282 15.9107 137.352 15.3777 137.49 14.927C137.629 14.4677 137.82 14.0907 138.062 13.796C138.314 13.4927 138.604 13.2673 138.933 13.12C139.271 12.9727 139.64 12.899 140.038 12.899C140.394 12.899 140.723 12.9597 141.026 13.081C141.338 13.1937 141.611 13.3713 141.845 13.614C142.088 13.8567 142.287 14.16 142.443 14.524C142.599 14.888 142.703 15.317 142.755 15.811H143.821V12.496H144.978V23.702H143.821V16.825H142.781C142.755 17.3883 142.669 17.8823 142.521 18.307C142.383 18.723 142.192 19.0697 141.949 19.347C141.707 19.6157 141.421 19.8193 141.091 19.958C140.771 20.088 140.42 20.153 140.038 20.153ZM146.031 12.431H147.214V24.053H146.031V12.431ZM140.038 13.9C139.57 13.9 139.189 14.1123 138.894 14.537C138.608 14.953 138.465 15.616 138.465 16.526C138.465 17.436 138.608 18.1033 138.894 18.528C139.189 18.944 139.57 19.152 140.038 19.152C140.506 19.152 140.883 18.944 141.169 18.528C141.464 18.1033 141.611 17.436 141.611 16.526C141.611 15.616 141.464 14.953 141.169 14.537C140.883 14.1123 140.506 13.9 140.038 13.9ZM161.724 24.053H160.489V12.431H161.724V24.053ZM155.458 20.218C154.947 20.218 154.492 20.1313 154.093 19.958C153.695 19.7847 153.357 19.5377 153.079 19.217C152.811 18.8877 152.607 18.4977 152.468 18.047C152.33 17.5963 152.26 17.0893 152.26 16.526C152.26 15.9713 152.33 15.4687 152.468 15.018C152.607 14.5587 152.811 14.1687 153.079 13.848C153.357 13.5187 153.695 13.2673 154.093 13.094C154.492 12.9207 154.947 12.834 155.458 12.834C155.97 12.834 156.425 12.9207 156.823 13.094C157.222 13.2673 157.556 13.5187 157.824 13.848C158.102 14.1687 158.31 14.5587 158.448 15.018C158.587 15.4687 158.656 15.9713 158.656 16.526C158.656 17.0893 158.587 17.5963 158.448 18.047C158.31 18.4977 158.102 18.8877 157.824 19.217C157.556 19.5377 157.222 19.7847 156.823 19.958C156.425 20.1313 155.97 20.218 155.458 20.218ZM155.458 13.835C154.791 13.835 154.293 14.082 153.963 14.576C153.634 15.0613 153.469 15.7113 153.469 16.526C153.469 17.3407 153.634 17.995 153.963 18.489C154.293 18.9743 154.791 19.217 155.458 19.217C156.126 19.217 156.624 18.9743 156.953 18.489C157.283 17.995 157.447 17.3407 157.447 16.526C157.447 15.7113 157.283 15.0613 156.953 14.576C156.624 14.082 156.126 13.835 155.458 13.835ZM163.504 15.096V14.069H165.714V12.275H166.949V14.069H169.146V15.096H166.949V16.266C166.949 16.708 167.018 17.124 167.157 17.514C167.304 17.904 167.49 18.2723 167.716 18.619C167.95 18.957 168.21 19.269 168.496 19.555C168.79 19.841 169.085 20.0967 169.38 20.322L168.717 21.076C168.517 20.9373 168.301 20.7597 168.067 20.543C167.841 20.3263 167.616 20.0923 167.391 19.841C167.174 19.5897 166.97 19.334 166.78 19.074C166.598 18.814 166.45 18.5757 166.338 18.359C166.234 18.5843 166.086 18.8313 165.896 19.1C165.714 19.36 165.501 19.62 165.259 19.88C165.025 20.14 164.773 20.3913 164.505 20.634C164.245 20.8767 163.985 21.089 163.725 21.271L163.036 20.478C163.417 20.192 163.772 19.893 164.102 19.581C164.431 19.269 164.713 18.944 164.947 18.606C165.189 18.2593 165.376 17.8953 165.506 17.514C165.644 17.124 165.714 16.708 165.714 16.266V15.096H163.504ZM168.392 17.657V16.643H169.952V12.496H171.109V23.702H169.952V17.657H168.392ZM172.162 12.431H173.345V24.053H172.162V12.431ZM185.628 17.267H183.873V21.206H182.638V12.431H183.873V16.253H185.628V17.267ZM177.334 13.484V12.08H178.569V13.484H181.416V14.459H174.435V13.484H177.334ZM177.945 19.854C177.547 19.854 177.17 19.802 176.814 19.698C176.459 19.594 176.147 19.4423 175.878 19.243C175.61 19.0437 175.397 18.7923 175.241 18.489C175.085 18.1857 175.007 17.839 175.007 17.449C175.007 17.059 175.085 16.7123 175.241 16.409C175.397 16.1057 175.61 15.8543 175.878 15.655C176.147 15.4557 176.459 15.304 176.814 15.2C177.17 15.096 177.547 15.044 177.945 15.044C178.344 15.044 178.721 15.096 179.076 15.2C179.432 15.304 179.744 15.4557 180.012 15.655C180.281 15.8543 180.493 16.1057 180.649 16.409C180.805 16.7123 180.883 17.059 180.883 17.449C180.883 17.839 180.805 18.1857 180.649 18.489C180.493 18.7923 180.281 19.0437 180.012 19.243C179.744 19.4423 179.432 19.594 179.076 19.698C178.721 19.802 178.344 19.854 177.945 19.854ZM177.945 16.019C177.443 16.019 177.027 16.1403 176.697 16.383C176.377 16.6257 176.216 16.981 176.216 17.449C176.216 17.917 176.377 18.2723 176.697 18.515C177.027 18.7577 177.443 18.879 177.945 18.879C178.448 18.879 178.86 18.7577 179.18 18.515C179.51 18.2723 179.674 17.917 179.674 17.449C179.674 16.981 179.51 16.6257 179.18 16.383C178.86 16.1403 178.448 16.019 177.945 16.019ZM177.607 22.779C177.607 22.8483 177.629 22.9047 177.672 22.948C177.716 22.9913 177.772 23.013 177.841 23.013H184.198V24.04H177.594C176.78 24.04 176.372 23.6327 176.372 22.818V20.738H177.607V22.779ZM199.033 24.053H197.798V12.431H199.033V24.053ZM195.068 13.107C195.38 13.107 195.536 13.263 195.536 13.575V14.615C195.536 15.4383 195.38 16.1837 195.068 16.851C194.765 17.5183 194.366 18.1207 193.872 18.658C193.387 19.1953 192.837 19.6677 192.221 20.075C191.606 20.4823 190.991 20.829 190.375 21.115L189.855 20.257C190.497 19.9537 191.086 19.6157 191.623 19.243C192.169 18.8703 192.642 18.463 193.04 18.021C193.439 17.5703 193.747 17.0807 193.963 16.552C194.189 16.0233 194.301 15.4513 194.301 14.836V14.134H190.141V13.107H195.068ZM209.926 15.525H203.556V16.37C203.556 16.4393 203.577 16.4957 203.621 16.539C203.664 16.5823 203.72 16.604 203.79 16.604H210.147V17.579H206.728V18.697H211.434V19.672H200.774V18.697H205.493V17.579H203.543C202.728 17.579 202.321 17.1717 202.321 16.357V14.576H208.691V13.562H202.321V12.587H209.718C209.856 12.587 209.926 12.6563 209.926 12.795V15.525ZM209.796 20.66C209.934 20.66 210.004 20.7293 210.004 20.868V24.313H208.769V21.687H202.139V20.66H209.796ZM221.78 24.053H220.545V12.431H221.78V24.053ZM215.514 20.218C215.003 20.218 214.548 20.1313 214.149 19.958C213.751 19.7847 213.413 19.5377 213.135 19.217C212.867 18.8877 212.663 18.4977 212.524 18.047C212.386 17.5963 212.316 17.0893 212.316 16.526C212.316 15.9713 212.386 15.4687 212.524 15.018C212.663 14.5587 212.867 14.1687 213.135 13.848C213.413 13.5187 213.751 13.2673 214.149 13.094C214.548 12.9207 215.003 12.834 215.514 12.834C216.026 12.834 216.481 12.9207 216.879 13.094C217.278 13.2673 217.612 13.5187 217.88 13.848C218.158 14.1687 218.366 14.5587 218.504 15.018C218.643 15.4687 218.712 15.9713 218.712 16.526C218.712 17.0893 218.643 17.5963 218.504 18.047C218.366 18.4977 218.158 18.8877 217.88 19.217C217.612 19.5377 217.278 19.7847 216.879 19.958C216.481 20.1313 216.026 20.218 215.514 20.218ZM215.514 13.835C214.847 13.835 214.349 14.082 214.019 14.576C213.69 15.0613 213.525 15.7113 213.525 16.526C213.525 17.3407 213.69 17.995 214.019 18.489C214.349 18.9743 214.847 19.217 215.514 19.217C216.182 19.217 216.68 18.9743 217.009 18.489C217.339 17.995 217.503 17.3407 217.503 16.526C217.503 15.7113 217.339 15.0613 217.009 14.576C216.68 14.082 216.182 13.835 215.514 13.835ZM230.336 18.177C229.877 18.177 229.452 18.1163 229.062 17.995C228.681 17.865 228.347 17.6787 228.061 17.436C227.784 17.1933 227.563 16.8987 227.398 16.552C227.242 16.1967 227.164 15.7937 227.164 15.343C227.164 14.8923 227.242 14.4937 227.398 14.147C227.563 13.7917 227.784 13.4927 228.061 13.25C228.347 13.0073 228.681 12.8253 229.062 12.704C229.452 12.574 229.877 12.509 230.336 12.509C230.744 12.509 231.125 12.561 231.48 12.665C231.836 12.769 232.152 12.9207 232.429 13.12C232.707 13.3193 232.932 13.562 233.105 13.848C233.287 14.134 233.409 14.4633 233.469 14.836H235.497V12.431H236.732V18.515H235.497V15.85H233.469C233.409 16.2227 233.287 16.5563 233.105 16.851C232.932 17.137 232.707 17.3797 232.429 17.579C232.152 17.7697 231.836 17.917 231.48 18.021C231.125 18.125 230.744 18.177 230.336 18.177ZM234.704 19.23H235.913V20.647C235.913 20.933 235.974 21.2147 236.095 21.492C236.217 21.7693 236.373 22.038 236.563 22.298C236.754 22.5493 236.966 22.7833 237.2 23C237.443 23.208 237.681 23.39 237.915 23.546L237.187 24.326C237.023 24.222 236.845 24.0877 236.654 23.923C236.472 23.767 236.29 23.5937 236.108 23.403C235.935 23.2123 235.775 23.0217 235.627 22.831C235.489 22.6317 235.38 22.4453 235.302 22.272C235.224 22.4453 235.112 22.6317 234.964 22.831C234.817 23.0217 234.657 23.2123 234.483 23.403C234.31 23.5937 234.128 23.767 233.937 23.923C233.755 24.0877 233.586 24.222 233.43 24.326L232.832 23.676V23.975C232.832 24.1137 232.763 24.183 232.624 24.183H229.751C228.937 24.183 228.529 23.7757 228.529 22.961V19.23H229.686V20.816H231.675V19.23H232.832V23.455C233.058 23.299 233.279 23.117 233.495 22.909C233.721 22.6923 233.92 22.4627 234.093 22.22C234.275 21.9773 234.423 21.726 234.535 21.466C234.648 21.1973 234.704 20.9243 234.704 20.647V19.23ZM230.336 13.51C230.05 13.51 229.786 13.5533 229.543 13.64C229.309 13.7267 229.106 13.8523 228.932 14.017C228.759 14.173 228.62 14.3637 228.516 14.589C228.421 14.8143 228.373 15.0657 228.373 15.343C228.373 15.6203 228.421 15.8717 228.516 16.097C228.62 16.3223 228.759 16.5173 228.932 16.682C229.106 16.838 229.309 16.9593 229.543 17.046C229.786 17.1327 230.05 17.176 230.336 17.176C230.622 17.176 230.882 17.1327 231.116 17.046C231.359 16.9593 231.567 16.838 231.74 16.682C231.914 16.5173 232.048 16.3223 232.143 16.097C232.247 15.8717 232.299 15.6203 232.299 15.343C232.299 15.0657 232.247 14.8143 232.143 14.589C232.048 14.3637 231.914 14.173 231.74 14.017C231.567 13.8523 231.359 13.7267 231.116 13.64C230.882 13.5533 230.622 13.51 230.336 13.51ZM231.675 23.182V21.752H229.686V22.948C229.686 23.0173 229.708 23.0737 229.751 23.117C229.795 23.1603 229.851 23.182 229.92 23.182H231.675ZM241.645 20.218C241.133 20.218 240.678 20.1313 240.28 19.958C239.881 19.7847 239.543 19.5377 239.266 19.217C238.997 18.8877 238.793 18.4977 238.655 18.047C238.516 17.5963 238.447 17.0893 238.447 16.526C238.447 15.9713 238.516 15.4687 238.655 15.018C238.793 14.5587 238.997 14.1687 239.266 13.848C239.543 13.5187 239.881 13.2673 240.28 13.094C240.678 12.9207 241.133 12.834 241.645 12.834C242.581 12.834 243.317 13.1157 243.855 13.679C244.401 14.2337 244.721 14.9833 244.817 15.928H246.806V12.431H248.041V24.053H246.806V16.942H244.83C244.795 17.4447 244.7 17.8997 244.544 18.307C244.388 18.7057 244.175 19.048 243.907 19.334C243.638 19.62 243.313 19.841 242.932 19.997C242.55 20.1443 242.121 20.218 241.645 20.218ZM241.645 13.835C240.977 13.835 240.479 14.082 240.15 14.576C239.82 15.0613 239.656 15.7113 239.656 16.526C239.656 17.3407 239.82 17.995 240.15 18.489C240.479 18.9743 240.977 19.217 241.645 19.217C242.312 19.217 242.81 18.9743 243.14 18.489C243.469 17.995 243.634 17.3407 243.634 16.526C243.634 15.7113 243.469 15.0613 243.14 14.576C242.81 14.082 242.312 13.835 241.645 13.835ZM254.851 18.944C254.331 18.944 253.846 18.879 253.395 18.749C252.945 18.6103 252.55 18.4067 252.212 18.138C251.883 17.8693 251.619 17.54 251.419 17.15C251.229 16.7513 251.133 16.2963 251.133 15.785C251.133 15.2737 251.229 14.823 251.419 14.433C251.619 14.0343 251.883 13.705 252.212 13.445C252.55 13.1763 252.945 12.9727 253.395 12.834C253.846 12.6953 254.331 12.626 254.851 12.626C255.371 12.626 255.857 12.6953 256.307 12.834C256.758 12.9727 257.148 13.1763 257.477 13.445C257.815 13.705 258.08 14.0343 258.27 14.433C258.47 14.823 258.569 15.2737 258.569 15.785C258.569 16.2963 258.47 16.7513 258.27 17.15C258.08 17.54 257.815 17.8693 257.477 18.138C257.148 18.4067 256.758 18.6103 256.307 18.749C255.857 18.879 255.371 18.944 254.851 18.944ZM254.851 13.627C254.487 13.627 254.149 13.6747 253.837 13.77C253.534 13.8653 253.27 14.004 253.044 14.186C252.828 14.368 252.654 14.5933 252.524 14.862C252.403 15.1307 252.342 15.4383 252.342 15.785C252.342 16.1317 252.403 16.4393 252.524 16.708C252.654 16.9767 252.828 17.202 253.044 17.384C253.27 17.566 253.534 17.7047 253.837 17.8C254.149 17.8953 254.487 17.943 254.851 17.943C255.215 17.943 255.549 17.8953 255.852 17.8C256.164 17.7047 256.429 17.566 256.645 17.384C256.871 17.202 257.044 16.9767 257.165 16.708C257.295 16.4393 257.36 16.1317 257.36 15.785C257.36 15.4383 257.295 15.1307 257.165 14.862C257.044 14.5933 256.871 14.368 256.645 14.186C256.429 14.004 256.164 13.8653 255.852 13.77C255.549 13.6747 255.215 13.627 254.851 13.627ZM260.181 22.233H249.521V21.206H252.043V19.334H253.226V21.206H256.372C256.442 20.8767 256.476 20.5257 256.476 20.153V19.334H257.659V20.062C257.659 20.2613 257.642 20.4607 257.607 20.66C257.581 20.8507 257.547 21.0327 257.503 21.206H260.181V22.233Z" fill="#484B51"/>
<path d="M20.433 11.75C20.3437 11.5953 20.1786 11.5 20 11.5C19.8214 11.5 19.6563 11.5953 19.567 11.75L12.6388 23.75C12.5495 23.9047 12.5495 24.0953 12.6388 24.25C12.7281 24.4047 12.8932 24.5 13.0718 24.5H26.9282C27.1068 24.5 27.2719 24.4047 27.3612 24.25C27.4505 24.0953 27.4505 23.9047 27.3612 23.75L20.433 11.75Z" fill="#FFD237" stroke="#484B51" stroke-linejoin="round"/>
<path d="M20 15.5557V20.0001" stroke="#484B51" stroke-width="1.4" stroke-linecap="round" stroke-linejoin="round"/>
<circle cx="20.0779" cy="22.0333" r="0.7" fill="#484B51"/>
</svg>
